G75*
G70*
%OFA0B0*%
%FSLAX24Y24*%
%IPPOS*%
%LPD*%
%AMOC8*
5,1,8,0,0,1.08239X$1,22.5*
%
%ADD10C,0.0125*%
%ADD11C,0.0173*%
%ADD12C,0.0295*%
%ADD13C,0.0315*%
%ADD14C,0.0256*%
%ADD15C,0.0199*%
%ADD16C,0.0198*%
%ADD17C,0.0202*%
%ADD18C,0.0197*%
%ADD19C,0.0201*%
%ADD20C,0.0157*%
%ADD21C,0.0201*%
%ADD22C,0.0202*%
D10*
X010782Y009885D02*
X010782Y010261D01*
X010782Y009885D02*
X010782Y009885D01*
X010782Y010261D01*
X010782Y010261D01*
X010782Y010009D02*
X010782Y010009D01*
X010782Y010133D02*
X010782Y010133D01*
X010782Y010257D02*
X010782Y010257D01*
X011032Y010261D02*
X011032Y009885D01*
X011032Y009885D01*
X011032Y010261D01*
X011032Y010261D01*
X011032Y010009D02*
X011032Y010009D01*
X011032Y010133D02*
X011032Y010133D01*
X011032Y010257D02*
X011032Y010257D01*
X011282Y010261D02*
X011282Y009885D01*
X011282Y009885D01*
X011282Y010261D01*
X011282Y010261D01*
X011282Y010009D02*
X011282Y010009D01*
X011282Y010133D02*
X011282Y010133D01*
X011282Y010257D02*
X011282Y010257D01*
X011532Y010261D02*
X011532Y009885D01*
X011532Y009885D01*
X011532Y010261D01*
X011532Y010261D01*
X011532Y010009D02*
X011532Y010009D01*
X011532Y010133D02*
X011532Y010133D01*
X011532Y010257D02*
X011532Y010257D01*
X011782Y010261D02*
X011782Y009885D01*
X011782Y009885D01*
X011782Y010261D01*
X011782Y010261D01*
X011782Y010009D02*
X011782Y010009D01*
X011782Y010133D02*
X011782Y010133D01*
X011782Y010257D02*
X011782Y010257D01*
X012032Y010261D02*
X012032Y009885D01*
X012032Y009885D01*
X012032Y010261D01*
X012032Y010261D01*
X012032Y010009D02*
X012032Y010009D01*
X012032Y010133D02*
X012032Y010133D01*
X012032Y010257D02*
X012032Y010257D01*
X012282Y010261D02*
X012282Y009885D01*
X012282Y009885D01*
X012282Y010261D01*
X012282Y010261D01*
X012282Y010009D02*
X012282Y010009D01*
X012282Y010133D02*
X012282Y010133D01*
X012282Y010257D02*
X012282Y010257D01*
X012532Y010261D02*
X012532Y009885D01*
X012532Y009885D01*
X012532Y010261D01*
X012532Y010261D01*
X012532Y010009D02*
X012532Y010009D01*
X012532Y010133D02*
X012532Y010133D01*
X012532Y010257D02*
X012532Y010257D01*
X012782Y010261D02*
X012782Y009885D01*
X012782Y009885D01*
X012782Y010261D01*
X012782Y010261D01*
X012782Y010009D02*
X012782Y010009D01*
X012782Y010133D02*
X012782Y010133D01*
X012782Y010257D02*
X012782Y010257D01*
X013032Y010261D02*
X013032Y009885D01*
X013032Y009885D01*
X013032Y010261D01*
X013032Y010261D01*
X013032Y010009D02*
X013032Y010009D01*
X013032Y010133D02*
X013032Y010133D01*
X013032Y010257D02*
X013032Y010257D01*
X013282Y010261D02*
X013282Y009885D01*
X013282Y009885D01*
X013282Y010261D01*
X013282Y010261D01*
X013282Y010009D02*
X013282Y010009D01*
X013282Y010133D02*
X013282Y010133D01*
X013282Y010257D02*
X013282Y010257D01*
X013532Y010261D02*
X013532Y009885D01*
X013532Y009885D01*
X013532Y010261D01*
X013532Y010261D01*
X013532Y010009D02*
X013532Y010009D01*
X013532Y010133D02*
X013532Y010133D01*
X013532Y010257D02*
X013532Y010257D01*
X013782Y010261D02*
X013782Y009885D01*
X013782Y009885D01*
X013782Y010261D01*
X013782Y010261D01*
X013782Y010009D02*
X013782Y010009D01*
X013782Y010133D02*
X013782Y010133D01*
X013782Y010257D02*
X013782Y010257D01*
X014032Y010261D02*
X014032Y009885D01*
X014032Y009885D01*
X014032Y010261D01*
X014032Y010261D01*
X014032Y010009D02*
X014032Y010009D01*
X014032Y010133D02*
X014032Y010133D01*
X014032Y010257D02*
X014032Y010257D01*
X014282Y010261D02*
X014282Y009885D01*
X014282Y009885D01*
X014282Y010261D01*
X014282Y010261D01*
X014282Y010009D02*
X014282Y010009D01*
X014282Y010133D02*
X014282Y010133D01*
X014282Y010257D02*
X014282Y010257D01*
X014532Y010261D02*
X014532Y009885D01*
X014532Y009885D01*
X014532Y010261D01*
X014532Y010261D01*
X014532Y010009D02*
X014532Y010009D01*
X014532Y010133D02*
X014532Y010133D01*
X014532Y010257D02*
X014532Y010257D01*
X014782Y010261D02*
X014782Y009885D01*
X014782Y009885D01*
X014782Y010261D01*
X014782Y010261D01*
X014782Y010009D02*
X014782Y010009D01*
X014782Y010133D02*
X014782Y010133D01*
X014782Y010257D02*
X014782Y010257D01*
X015032Y010261D02*
X015032Y009885D01*
X015032Y009885D01*
X015032Y010261D01*
X015032Y010261D01*
X015032Y010009D02*
X015032Y010009D01*
X015032Y010133D02*
X015032Y010133D01*
X015032Y010257D02*
X015032Y010257D01*
X015282Y010261D02*
X015282Y009885D01*
X015282Y009885D01*
X015282Y010261D01*
X015282Y010261D01*
X015282Y010009D02*
X015282Y010009D01*
X015282Y010133D02*
X015282Y010133D01*
X015282Y010257D02*
X015282Y010257D01*
X015532Y010261D02*
X015532Y009885D01*
X015532Y009885D01*
X015532Y010261D01*
X015532Y010261D01*
X015532Y010009D02*
X015532Y010009D01*
X015532Y010133D02*
X015532Y010133D01*
X015532Y010257D02*
X015532Y010257D01*
X015782Y010261D02*
X015782Y009885D01*
X015782Y009885D01*
X015782Y010261D01*
X015782Y010261D01*
X015782Y010009D02*
X015782Y010009D01*
X015782Y010133D02*
X015782Y010133D01*
X015782Y010257D02*
X015782Y010257D01*
X016032Y010261D02*
X016032Y009885D01*
X016032Y009885D01*
X016032Y010261D01*
X016032Y010261D01*
X016032Y010009D02*
X016032Y010009D01*
X016032Y010133D02*
X016032Y010133D01*
X016032Y010257D02*
X016032Y010257D01*
X016282Y010261D02*
X016282Y009885D01*
X016282Y009885D01*
X016282Y010261D01*
X016282Y010261D01*
X016282Y010009D02*
X016282Y010009D01*
X016282Y010133D02*
X016282Y010133D01*
X016282Y010257D02*
X016282Y010257D01*
X016532Y010261D02*
X016532Y009885D01*
X016532Y009885D01*
X016532Y010261D01*
X016532Y010261D01*
X016532Y010009D02*
X016532Y010009D01*
X016532Y010133D02*
X016532Y010133D01*
X016532Y010257D02*
X016532Y010257D01*
X016782Y010261D02*
X016782Y009885D01*
X016782Y009885D01*
X016782Y010261D01*
X016782Y010261D01*
X016782Y010009D02*
X016782Y010009D01*
X016782Y010133D02*
X016782Y010133D01*
X016782Y010257D02*
X016782Y010257D01*
X017032Y010261D02*
X017032Y009885D01*
X017032Y009885D01*
X017032Y010261D01*
X017032Y010261D01*
X017032Y010009D02*
X017032Y010009D01*
X017032Y010133D02*
X017032Y010133D01*
X017032Y010257D02*
X017032Y010257D01*
X017282Y010261D02*
X017282Y009885D01*
X017282Y009885D01*
X017282Y010261D01*
X017282Y010261D01*
X017282Y010009D02*
X017282Y010009D01*
X017282Y010133D02*
X017282Y010133D01*
X017282Y010257D02*
X017282Y010257D01*
X017532Y010261D02*
X017532Y009885D01*
X017532Y009885D01*
X017532Y010261D01*
X017532Y010261D01*
X017532Y010009D02*
X017532Y010009D01*
X017532Y010133D02*
X017532Y010133D01*
X017532Y010257D02*
X017532Y010257D01*
X017532Y013685D02*
X017532Y014061D01*
X017532Y014061D01*
X017532Y013685D01*
X017532Y013685D01*
X017532Y013809D02*
X017532Y013809D01*
X017532Y013933D02*
X017532Y013933D01*
X017532Y014057D02*
X017532Y014057D01*
X017282Y014061D02*
X017282Y013685D01*
X017282Y014061D02*
X017282Y014061D01*
X017282Y013685D01*
X017282Y013685D01*
X017282Y013809D02*
X017282Y013809D01*
X017282Y013933D02*
X017282Y013933D01*
X017282Y014057D02*
X017282Y014057D01*
X017032Y014061D02*
X017032Y013685D01*
X017032Y014061D02*
X017032Y014061D01*
X017032Y013685D01*
X017032Y013685D01*
X017032Y013809D02*
X017032Y013809D01*
X017032Y013933D02*
X017032Y013933D01*
X017032Y014057D02*
X017032Y014057D01*
X016782Y014061D02*
X016782Y013685D01*
X016782Y014061D02*
X016782Y014061D01*
X016782Y013685D01*
X016782Y013685D01*
X016782Y013809D02*
X016782Y013809D01*
X016782Y013933D02*
X016782Y013933D01*
X016782Y014057D02*
X016782Y014057D01*
X016532Y014061D02*
X016532Y013685D01*
X016532Y014061D02*
X016532Y014061D01*
X016532Y013685D01*
X016532Y013685D01*
X016532Y013809D02*
X016532Y013809D01*
X016532Y013933D02*
X016532Y013933D01*
X016532Y014057D02*
X016532Y014057D01*
X016282Y014061D02*
X016282Y013685D01*
X016282Y014061D02*
X016282Y014061D01*
X016282Y013685D01*
X016282Y013685D01*
X016282Y013809D02*
X016282Y013809D01*
X016282Y013933D02*
X016282Y013933D01*
X016282Y014057D02*
X016282Y014057D01*
X016032Y014061D02*
X016032Y013685D01*
X016032Y014061D02*
X016032Y014061D01*
X016032Y013685D01*
X016032Y013685D01*
X016032Y013809D02*
X016032Y013809D01*
X016032Y013933D02*
X016032Y013933D01*
X016032Y014057D02*
X016032Y014057D01*
X015782Y014061D02*
X015782Y013685D01*
X015782Y014061D02*
X015782Y014061D01*
X015782Y013685D01*
X015782Y013685D01*
X015782Y013809D02*
X015782Y013809D01*
X015782Y013933D02*
X015782Y013933D01*
X015782Y014057D02*
X015782Y014057D01*
X015532Y014061D02*
X015532Y013685D01*
X015532Y014061D02*
X015532Y014061D01*
X015532Y013685D01*
X015532Y013685D01*
X015532Y013809D02*
X015532Y013809D01*
X015532Y013933D02*
X015532Y013933D01*
X015532Y014057D02*
X015532Y014057D01*
X015282Y014061D02*
X015282Y013685D01*
X015282Y014061D02*
X015282Y014061D01*
X015282Y013685D01*
X015282Y013685D01*
X015282Y013809D02*
X015282Y013809D01*
X015282Y013933D02*
X015282Y013933D01*
X015282Y014057D02*
X015282Y014057D01*
X015032Y014061D02*
X015032Y013685D01*
X015032Y014061D02*
X015032Y014061D01*
X015032Y013685D01*
X015032Y013685D01*
X015032Y013809D02*
X015032Y013809D01*
X015032Y013933D02*
X015032Y013933D01*
X015032Y014057D02*
X015032Y014057D01*
X014782Y014061D02*
X014782Y013685D01*
X014782Y014061D02*
X014782Y014061D01*
X014782Y013685D01*
X014782Y013685D01*
X014782Y013809D02*
X014782Y013809D01*
X014782Y013933D02*
X014782Y013933D01*
X014782Y014057D02*
X014782Y014057D01*
X014532Y014061D02*
X014532Y013685D01*
X014532Y014061D02*
X014532Y014061D01*
X014532Y013685D01*
X014532Y013685D01*
X014532Y013809D02*
X014532Y013809D01*
X014532Y013933D02*
X014532Y013933D01*
X014532Y014057D02*
X014532Y014057D01*
X014282Y014061D02*
X014282Y013685D01*
X014282Y014061D02*
X014282Y014061D01*
X014282Y013685D01*
X014282Y013685D01*
X014282Y013809D02*
X014282Y013809D01*
X014282Y013933D02*
X014282Y013933D01*
X014282Y014057D02*
X014282Y014057D01*
X014032Y014061D02*
X014032Y013685D01*
X014032Y014061D02*
X014032Y014061D01*
X014032Y013685D01*
X014032Y013685D01*
X014032Y013809D02*
X014032Y013809D01*
X014032Y013933D02*
X014032Y013933D01*
X014032Y014057D02*
X014032Y014057D01*
X013782Y014061D02*
X013782Y013685D01*
X013782Y014061D02*
X013782Y014061D01*
X013782Y013685D01*
X013782Y013685D01*
X013782Y013809D02*
X013782Y013809D01*
X013782Y013933D02*
X013782Y013933D01*
X013782Y014057D02*
X013782Y014057D01*
X013532Y014061D02*
X013532Y013685D01*
X013532Y014061D02*
X013532Y014061D01*
X013532Y013685D01*
X013532Y013685D01*
X013532Y013809D02*
X013532Y013809D01*
X013532Y013933D02*
X013532Y013933D01*
X013532Y014057D02*
X013532Y014057D01*
X013282Y014061D02*
X013282Y013685D01*
X013282Y014061D02*
X013282Y014061D01*
X013282Y013685D01*
X013282Y013685D01*
X013282Y013809D02*
X013282Y013809D01*
X013282Y013933D02*
X013282Y013933D01*
X013282Y014057D02*
X013282Y014057D01*
X013032Y014061D02*
X013032Y013685D01*
X013032Y014061D02*
X013032Y014061D01*
X013032Y013685D01*
X013032Y013685D01*
X013032Y013809D02*
X013032Y013809D01*
X013032Y013933D02*
X013032Y013933D01*
X013032Y014057D02*
X013032Y014057D01*
X012782Y014061D02*
X012782Y013685D01*
X012782Y014061D02*
X012782Y014061D01*
X012782Y013685D01*
X012782Y013685D01*
X012782Y013809D02*
X012782Y013809D01*
X012782Y013933D02*
X012782Y013933D01*
X012782Y014057D02*
X012782Y014057D01*
X012532Y014061D02*
X012532Y013685D01*
X012532Y014061D02*
X012532Y014061D01*
X012532Y013685D01*
X012532Y013685D01*
X012532Y013809D02*
X012532Y013809D01*
X012532Y013933D02*
X012532Y013933D01*
X012532Y014057D02*
X012532Y014057D01*
X012282Y014061D02*
X012282Y013685D01*
X012282Y014061D02*
X012282Y014061D01*
X012282Y013685D01*
X012282Y013685D01*
X012282Y013809D02*
X012282Y013809D01*
X012282Y013933D02*
X012282Y013933D01*
X012282Y014057D02*
X012282Y014057D01*
X012032Y014061D02*
X012032Y013685D01*
X012032Y014061D02*
X012032Y014061D01*
X012032Y013685D01*
X012032Y013685D01*
X012032Y013809D02*
X012032Y013809D01*
X012032Y013933D02*
X012032Y013933D01*
X012032Y014057D02*
X012032Y014057D01*
X011782Y014061D02*
X011782Y013685D01*
X011782Y014061D02*
X011782Y014061D01*
X011782Y013685D01*
X011782Y013685D01*
X011782Y013809D02*
X011782Y013809D01*
X011782Y013933D02*
X011782Y013933D01*
X011782Y014057D02*
X011782Y014057D01*
X011532Y014061D02*
X011532Y013685D01*
X011532Y014061D02*
X011532Y014061D01*
X011532Y013685D01*
X011532Y013685D01*
X011532Y013809D02*
X011532Y013809D01*
X011532Y013933D02*
X011532Y013933D01*
X011532Y014057D02*
X011532Y014057D01*
X011282Y014061D02*
X011282Y013685D01*
X011282Y014061D02*
X011282Y014061D01*
X011282Y013685D01*
X011282Y013685D01*
X011282Y013809D02*
X011282Y013809D01*
X011282Y013933D02*
X011282Y013933D01*
X011282Y014057D02*
X011282Y014057D01*
X011032Y014061D02*
X011032Y013685D01*
X011032Y014061D02*
X011032Y014061D01*
X011032Y013685D01*
X011032Y013685D01*
X011032Y013809D02*
X011032Y013809D01*
X011032Y013933D02*
X011032Y013933D01*
X011032Y014057D02*
X011032Y014057D01*
X010782Y014061D02*
X010782Y013685D01*
X010782Y014061D02*
X010782Y014061D01*
X010782Y013685D01*
X010782Y013685D01*
X010782Y013809D02*
X010782Y013809D01*
X010782Y013933D02*
X010782Y013933D01*
X010782Y014057D02*
X010782Y014057D01*
D11*
X018403Y012484D02*
X018403Y012484D01*
X017985Y012484D01*
X017985Y012484D01*
X018403Y012484D01*
X018403Y012228D02*
X018403Y012228D01*
X017985Y012228D01*
X017985Y012228D01*
X018403Y012228D01*
X018403Y011973D02*
X018403Y011973D01*
X017985Y011973D01*
X017985Y011973D01*
X018403Y011973D01*
X018403Y011717D02*
X018403Y011717D01*
X017985Y011717D01*
X017985Y011717D01*
X018403Y011717D01*
X018403Y011461D02*
X018403Y011461D01*
X017985Y011461D01*
X017985Y011461D01*
X018403Y011461D01*
D12*
X018431Y010900D02*
X018431Y010526D01*
X018135Y010526D01*
X018135Y010900D01*
X018431Y010900D01*
X018431Y010820D02*
X018135Y010820D01*
X018431Y013045D02*
X018431Y013419D01*
X018431Y013045D02*
X018135Y013045D01*
X018135Y013419D01*
X018431Y013419D01*
X018431Y013339D02*
X018135Y013339D01*
D13*
X019454Y012554D02*
X019454Y012238D01*
X019060Y012238D01*
X019060Y012554D01*
X019454Y012554D01*
X019454Y012552D02*
X019060Y012552D01*
X019454Y011715D02*
X019454Y011399D01*
X019060Y011399D01*
X019060Y011715D01*
X019454Y011715D01*
X019454Y011713D02*
X019060Y011713D01*
D14*
X018879Y010923D02*
X018879Y010503D01*
X018879Y010923D02*
X019135Y010923D01*
X019135Y010503D01*
X018879Y010503D01*
X018879Y010758D02*
X019135Y010758D01*
X019135Y013022D02*
X019135Y013442D01*
X019135Y013022D02*
X018879Y013022D01*
X018879Y013442D01*
X019135Y013442D01*
X019135Y013277D02*
X018879Y013277D01*
D15*
X014406Y015640D02*
X014406Y015658D01*
X014406Y015640D02*
X014132Y015640D01*
X014132Y015658D01*
X014406Y015658D01*
X014406Y016388D02*
X014406Y016406D01*
X014406Y016388D02*
X014132Y016388D01*
X014132Y016406D01*
X014406Y016406D01*
X013382Y016406D02*
X013382Y016388D01*
X013108Y016388D01*
X013108Y016406D01*
X013382Y016406D01*
X013382Y016032D02*
X013382Y016014D01*
X013108Y016014D01*
X013108Y016032D01*
X013382Y016032D01*
X013382Y015658D02*
X013382Y015640D01*
X013108Y015640D01*
X013108Y015658D01*
X013382Y015658D01*
X010765Y015671D02*
X010747Y015671D01*
X010765Y015671D02*
X010765Y015397D01*
X010747Y015397D01*
X010747Y015671D01*
X010747Y015595D02*
X010765Y015595D01*
X010391Y015671D02*
X010373Y015671D01*
X010391Y015671D02*
X010391Y015397D01*
X010373Y015397D01*
X010373Y015671D01*
X010373Y015595D02*
X010391Y015595D01*
X010017Y015671D02*
X009999Y015671D01*
X010017Y015671D02*
X010017Y015397D01*
X009999Y015397D01*
X009999Y015671D01*
X009999Y015595D02*
X010017Y015595D01*
X009999Y014648D02*
X010017Y014648D01*
X010017Y014374D01*
X009999Y014374D01*
X009999Y014648D01*
X009999Y014572D02*
X010017Y014572D01*
X010373Y014648D02*
X010391Y014648D01*
X010391Y014374D01*
X010373Y014374D01*
X010373Y014648D01*
X010373Y014572D02*
X010391Y014572D01*
X010747Y014648D02*
X010765Y014648D01*
X010765Y014374D01*
X010747Y014374D01*
X010747Y014648D01*
X010747Y014572D02*
X010765Y014572D01*
X010765Y009297D02*
X010747Y009297D01*
X010747Y009571D01*
X010765Y009571D01*
X010765Y009297D01*
X010765Y009495D02*
X010747Y009495D01*
X010391Y009297D02*
X010373Y009297D01*
X010373Y009571D01*
X010391Y009571D01*
X010391Y009297D01*
X010391Y009495D02*
X010373Y009495D01*
X010017Y009297D02*
X009999Y009297D01*
X009999Y009571D01*
X010017Y009571D01*
X010017Y009297D01*
X010017Y009495D02*
X009999Y009495D01*
X010017Y008274D02*
X009999Y008274D01*
X009999Y008548D01*
X010017Y008548D01*
X010017Y008274D01*
X010017Y008472D02*
X009999Y008472D01*
X010373Y008274D02*
X010391Y008274D01*
X010373Y008274D02*
X010373Y008548D01*
X010391Y008548D01*
X010391Y008274D01*
X010391Y008472D02*
X010373Y008472D01*
X010747Y008274D02*
X010765Y008274D01*
X010747Y008274D02*
X010747Y008548D01*
X010765Y008548D01*
X010765Y008274D01*
X010765Y008472D02*
X010747Y008472D01*
D16*
X015819Y015731D02*
X016171Y015731D01*
X015819Y015731D02*
X015819Y016005D01*
X016171Y016005D01*
X016171Y015731D01*
X016171Y015928D02*
X015819Y015928D01*
X015819Y016440D02*
X016171Y016440D01*
X015819Y016440D02*
X015819Y016714D01*
X016171Y016714D01*
X016171Y016440D01*
X016171Y016637D02*
X015819Y016637D01*
X016843Y016440D02*
X017195Y016440D01*
X016843Y016440D02*
X016843Y016714D01*
X017195Y016714D01*
X017195Y016440D01*
X017195Y016637D02*
X016843Y016637D01*
X016843Y015731D02*
X017195Y015731D01*
X016843Y015731D02*
X016843Y016005D01*
X017195Y016005D01*
X017195Y015731D01*
X017195Y015928D02*
X016843Y015928D01*
D17*
X017949Y009273D02*
X017949Y008983D01*
X017365Y008983D01*
X017365Y009273D01*
X017949Y009273D01*
X017949Y009184D02*
X017365Y009184D01*
X017949Y008368D02*
X017949Y008078D01*
X017365Y008078D01*
X017365Y008368D01*
X017949Y008368D01*
X017949Y008279D02*
X017365Y008279D01*
X017949Y007462D02*
X017949Y007172D01*
X017365Y007172D01*
X017365Y007462D01*
X017949Y007462D01*
X017949Y007373D02*
X017365Y007373D01*
D18*
X015690Y007613D02*
X015690Y008833D01*
X015690Y007613D02*
X015100Y007613D01*
X015100Y008833D01*
X015690Y008833D01*
X015690Y007809D02*
X015100Y007809D01*
X015100Y008005D02*
X015690Y008005D01*
X015690Y008201D02*
X015100Y008201D01*
X015100Y008397D02*
X015690Y008397D01*
X015690Y008593D02*
X015100Y008593D01*
X015100Y008789D02*
X015690Y008789D01*
D19*
X018907Y009075D02*
X018907Y009111D01*
X019307Y009111D01*
X019307Y009075D01*
X018907Y009075D01*
X018907Y009884D02*
X018907Y009920D01*
X019307Y009920D01*
X019307Y009884D01*
X018907Y009884D01*
D20*
X009915Y007423D02*
X009915Y007423D01*
X009915Y007523D01*
X009915Y007523D01*
X009915Y007423D01*
X010249Y007423D02*
X010249Y007423D01*
X010249Y007523D01*
X010249Y007523D01*
X010249Y007423D01*
X010249Y007848D02*
X010249Y007848D01*
X010249Y007948D01*
X010249Y007948D01*
X010249Y007848D01*
X009915Y007848D02*
X009915Y007848D01*
X009915Y007948D01*
X009915Y007948D01*
X009915Y007848D01*
X012065Y009573D02*
X012065Y009573D01*
X012065Y009473D01*
X012065Y009473D01*
X012065Y009573D01*
X012399Y009573D02*
X012399Y009573D01*
X012399Y009473D01*
X012399Y009473D01*
X012399Y009573D01*
X013332Y009540D02*
X013332Y009540D01*
X013232Y009540D01*
X013232Y009540D01*
X013332Y009540D01*
X013332Y009205D02*
X013332Y009205D01*
X013232Y009205D01*
X013232Y009205D01*
X013332Y009205D01*
X014357Y009205D02*
X014357Y009205D01*
X014457Y009205D01*
X014457Y009205D01*
X014357Y009205D01*
X014357Y009540D02*
X014357Y009540D01*
X014457Y009540D01*
X014457Y009540D01*
X014357Y009540D01*
X015140Y009198D02*
X015140Y009198D01*
X015140Y009298D01*
X015140Y009298D01*
X015140Y009198D01*
X015474Y009198D02*
X015474Y009198D01*
X015474Y009298D01*
X015474Y009298D01*
X015474Y009198D01*
X013957Y007515D02*
X013957Y007515D01*
X013857Y007515D01*
X013857Y007515D01*
X013957Y007515D01*
X013957Y007180D02*
X013957Y007180D01*
X013857Y007180D01*
X013857Y007180D01*
X013957Y007180D01*
X009982Y009930D02*
X009982Y009930D01*
X010082Y009930D01*
X010082Y009930D01*
X009982Y009930D01*
X009982Y010265D02*
X009982Y010265D01*
X010082Y010265D01*
X010082Y010265D01*
X009982Y010265D01*
X009982Y010680D02*
X009982Y010680D01*
X010082Y010680D01*
X010082Y010680D01*
X009982Y010680D01*
X009982Y011015D02*
X009982Y011015D01*
X010082Y011015D01*
X010082Y011015D01*
X009982Y011015D01*
X010082Y012955D02*
X010082Y012955D01*
X009982Y012955D01*
X009982Y012955D01*
X010082Y012955D01*
X010082Y013290D02*
X010082Y013290D01*
X009982Y013290D01*
X009982Y013290D01*
X010082Y013290D01*
X010082Y013680D02*
X010082Y013680D01*
X009982Y013680D01*
X009982Y013680D01*
X010082Y013680D01*
X010082Y014015D02*
X010082Y014015D01*
X009982Y014015D01*
X009982Y014015D01*
X010082Y014015D01*
X012457Y014830D02*
X012457Y014830D01*
X012557Y014830D01*
X012557Y014830D01*
X012457Y014830D01*
X012457Y015165D02*
X012457Y015165D01*
X012557Y015165D01*
X012557Y015165D01*
X012457Y015165D01*
X013232Y014740D02*
X013232Y014740D01*
X013332Y014740D01*
X013332Y014740D01*
X013232Y014740D01*
X013232Y014405D02*
X013232Y014405D01*
X013332Y014405D01*
X013332Y014405D01*
X013232Y014405D01*
X014232Y014405D02*
X014232Y014405D01*
X014332Y014405D01*
X014332Y014405D01*
X014232Y014405D01*
X014232Y014740D02*
X014232Y014740D01*
X014332Y014740D01*
X014332Y014740D01*
X014232Y014740D01*
X015232Y014740D02*
X015232Y014740D01*
X015332Y014740D01*
X015332Y014740D01*
X015232Y014740D01*
X015232Y014405D02*
X015232Y014405D01*
X015332Y014405D01*
X015332Y014405D01*
X015232Y014405D01*
X016232Y014405D02*
X016232Y014405D01*
X016332Y014405D01*
X016332Y014405D01*
X016232Y014405D01*
X016232Y014740D02*
X016232Y014740D01*
X016332Y014740D01*
X016332Y014740D01*
X016232Y014740D01*
X014857Y015680D02*
X014857Y015680D01*
X014757Y015680D01*
X014757Y015680D01*
X014857Y015680D01*
X014857Y016015D02*
X014857Y016015D01*
X014757Y016015D01*
X014757Y016015D01*
X014857Y016015D01*
X015382Y016330D02*
X015382Y016330D01*
X015482Y016330D01*
X015482Y016330D01*
X015382Y016330D01*
X015382Y016665D02*
X015382Y016665D01*
X015482Y016665D01*
X015482Y016665D01*
X015382Y016665D01*
X017632Y016665D02*
X017632Y016665D01*
X017532Y016665D01*
X017532Y016665D01*
X017632Y016665D01*
X017632Y016330D02*
X017632Y016330D01*
X017532Y016330D01*
X017532Y016330D01*
X017632Y016330D01*
X012557Y016355D02*
X012557Y016355D01*
X012457Y016355D01*
X012457Y016355D01*
X012557Y016355D01*
X012557Y016690D02*
X012557Y016690D01*
X012457Y016690D01*
X012457Y016690D01*
X012557Y016690D01*
X012107Y016690D02*
X012107Y016690D01*
X012007Y016690D01*
X012007Y016690D01*
X012107Y016690D01*
X012107Y016355D02*
X012107Y016355D01*
X012007Y016355D01*
X012007Y016355D01*
X012107Y016355D01*
X010249Y016423D02*
X010249Y016423D01*
X010249Y016523D01*
X010249Y016523D01*
X010249Y016423D01*
X009915Y016423D02*
X009915Y016423D01*
X009915Y016523D01*
X009915Y016523D01*
X009915Y016423D01*
X009915Y015998D02*
X009915Y015998D01*
X009915Y016098D01*
X009915Y016098D01*
X009915Y015998D01*
X010249Y015998D02*
X010249Y015998D01*
X010249Y016098D01*
X010249Y016098D01*
X010249Y015998D01*
D21*
X018029Y013896D02*
X018105Y013896D01*
X018029Y013896D02*
X018029Y014050D01*
X018105Y014050D01*
X018105Y013896D01*
X018509Y013896D02*
X018585Y013896D01*
X018509Y013896D02*
X018509Y014050D01*
X018585Y014050D01*
X018585Y013896D01*
X018585Y009896D02*
X018509Y009896D01*
X018509Y010050D01*
X018585Y010050D01*
X018585Y009896D01*
X018105Y009896D02*
X018029Y009896D01*
X018029Y010050D01*
X018105Y010050D01*
X018105Y009896D01*
X018405Y009126D02*
X018405Y009050D01*
X018405Y009126D02*
X018559Y009126D01*
X018559Y009050D01*
X018405Y009050D01*
X018405Y008646D02*
X018405Y008570D01*
X018405Y008646D02*
X018559Y008646D01*
X018559Y008570D01*
X018405Y008570D01*
X013855Y009020D02*
X013855Y009096D01*
X014009Y009096D01*
X014009Y009020D01*
X013855Y009020D01*
X013855Y009500D02*
X013855Y009576D01*
X014009Y009576D01*
X014009Y009500D01*
X013855Y009500D01*
D22*
X014706Y008383D02*
X014706Y008271D01*
X014308Y008271D01*
X014308Y008383D01*
X014706Y008383D01*
X014706Y007674D02*
X014706Y007562D01*
X014308Y007562D01*
X014308Y007674D01*
X014706Y007674D01*
M02*
