G75*
G70*
%OFA0B0*%
%FSLAX24Y24*%
%IPPOS*%
%LPD*%
%AMOC8*
5,1,8,0,0,1.08239X$1,22.5*
%
%ADD10C,0.0075*%
%ADD11C,0.0080*%
%ADD12C,0.0060*%
%ADD13C,0.0120*%
%ADD14C,0.0050*%
%ADD15C,0.0300*%
%ADD16C,0.0100*%
%ADD17C,0.0079*%
D10*
X010507Y007348D02*
X010582Y007273D01*
X010507Y007348D02*
X010507Y007623D01*
X010432Y007698D01*
X011882Y008098D02*
X011882Y007223D01*
X012032Y007073D01*
X012532Y007073D01*
X012682Y007223D01*
X012682Y008098D01*
X012532Y008248D01*
X012032Y008248D01*
X011882Y008098D01*
X010607Y010323D02*
X010557Y010323D01*
X010557Y013623D01*
X010607Y013623D01*
X010882Y013448D02*
X011782Y013448D01*
X011777Y013403D01*
X011762Y013361D01*
X011738Y013323D01*
X011707Y013291D01*
X011669Y013267D01*
X011626Y013253D01*
X011582Y013248D01*
X011082Y013248D01*
X011037Y013253D01*
X010995Y013267D01*
X010957Y013291D01*
X010925Y013323D01*
X010902Y013361D01*
X010887Y013403D01*
X010882Y013448D01*
X010886Y013411D02*
X011778Y013411D01*
X011748Y013338D02*
X010916Y013338D01*
X011004Y013264D02*
X011660Y013264D01*
X011877Y013134D02*
X011900Y013172D01*
X011932Y013204D01*
X011970Y013228D01*
X012012Y013243D01*
X012057Y013248D01*
X012557Y013248D01*
X012601Y013243D01*
X012644Y013228D01*
X012682Y013204D01*
X012713Y013172D01*
X012737Y013134D01*
X012752Y013092D01*
X012757Y013048D01*
X012757Y012548D01*
X012762Y012503D01*
X012777Y012461D01*
X012800Y012423D01*
X012832Y012391D01*
X012870Y012367D01*
X012912Y012353D01*
X012957Y012348D01*
X013457Y012348D01*
X013501Y012343D01*
X013544Y012328D01*
X013582Y012304D01*
X013613Y012272D01*
X013637Y012234D01*
X013652Y012192D01*
X013657Y012148D01*
X013657Y011648D01*
X013652Y011603D01*
X013637Y011561D01*
X013613Y011523D01*
X013582Y011491D01*
X013544Y011467D01*
X013501Y011453D01*
X013457Y011448D01*
X012957Y011448D01*
X012912Y011443D01*
X012870Y011428D01*
X012832Y011404D01*
X012800Y011372D01*
X012777Y011334D01*
X012762Y011292D01*
X012757Y011248D01*
X012757Y010748D01*
X012752Y010703D01*
X012737Y010661D01*
X012713Y010623D01*
X012682Y010591D01*
X012644Y010567D01*
X012601Y010553D01*
X012557Y010548D01*
X012057Y010548D01*
X012012Y010553D01*
X011970Y010567D01*
X011932Y010591D01*
X011900Y010623D01*
X011877Y010661D01*
X011862Y010703D01*
X011857Y010748D01*
X011857Y011248D01*
X011862Y011292D01*
X011877Y011334D01*
X011900Y011372D01*
X011932Y011404D01*
X011970Y011428D01*
X012012Y011443D01*
X012057Y011448D01*
X012557Y011448D01*
X012601Y011453D01*
X012644Y011467D01*
X012682Y011491D01*
X012713Y011523D01*
X012737Y011561D01*
X012752Y011603D01*
X012757Y011648D01*
X012801Y011643D01*
X012844Y011628D01*
X012882Y011604D01*
X012913Y011572D01*
X012937Y011534D01*
X012952Y011492D01*
X012957Y011448D01*
X012912Y011453D01*
X012870Y011467D01*
X012832Y011491D01*
X012800Y011523D01*
X012777Y011561D01*
X012762Y011603D01*
X012757Y011648D01*
X012757Y012148D01*
X012752Y012192D01*
X012737Y012234D01*
X012713Y012272D01*
X012682Y012304D01*
X012644Y012328D01*
X012601Y012343D01*
X012557Y012348D01*
X012057Y012348D01*
X012012Y012353D01*
X011970Y012367D01*
X011932Y012391D01*
X011900Y012423D01*
X011877Y012461D01*
X011862Y012503D01*
X011857Y012548D01*
X011857Y013048D01*
X011862Y013092D01*
X011877Y013134D01*
X011871Y013117D02*
X012743Y013117D01*
X012757Y013044D02*
X011857Y013044D01*
X011857Y012970D02*
X012757Y012970D01*
X012757Y012897D02*
X011857Y012897D01*
X011857Y012823D02*
X012757Y012823D01*
X012757Y012750D02*
X011857Y012750D01*
X011857Y012676D02*
X012757Y012676D01*
X012757Y012603D02*
X011857Y012603D01*
X011859Y012529D02*
X012759Y012529D01*
X012780Y012456D02*
X011880Y012456D01*
X011946Y012382D02*
X012846Y012382D01*
X012736Y012235D02*
X013636Y012235D01*
X013655Y012162D02*
X012755Y012162D01*
X012757Y012088D02*
X013657Y012088D01*
X013657Y012015D02*
X012757Y012015D01*
X012757Y011941D02*
X013657Y011941D01*
X013657Y011868D02*
X012757Y011868D01*
X012757Y011794D02*
X013657Y011794D01*
X013657Y011721D02*
X012757Y011721D01*
X012757Y011647D02*
X012759Y011647D01*
X012757Y011647D02*
X013657Y011647D01*
X013642Y011574D02*
X012772Y011574D01*
X012742Y011574D02*
X012912Y011574D01*
X012949Y011500D02*
X012691Y011500D01*
X012823Y011500D02*
X013591Y011500D01*
X013800Y011372D02*
X013832Y011404D01*
X013870Y011428D01*
X013912Y011443D01*
X013957Y011448D01*
X014457Y011448D01*
X014501Y011453D01*
X014544Y011467D01*
X014582Y011491D01*
X014613Y011523D01*
X014637Y011561D01*
X014652Y011603D01*
X014657Y011648D01*
X014657Y012148D01*
X014662Y012192D01*
X014677Y012234D01*
X014700Y012272D01*
X014732Y012304D01*
X014770Y012328D01*
X014812Y012343D01*
X014857Y012348D01*
X015357Y012348D01*
X015401Y012343D01*
X015444Y012328D01*
X015482Y012304D01*
X015513Y012272D01*
X015537Y012234D01*
X015552Y012192D01*
X015557Y012148D01*
X015557Y011648D01*
X015562Y011603D01*
X015577Y011561D01*
X015600Y011523D01*
X015632Y011491D01*
X015670Y011467D01*
X015712Y011453D01*
X015757Y011448D01*
X016257Y011448D01*
X016301Y011443D01*
X016344Y011428D01*
X016382Y011404D01*
X016413Y011372D01*
X016437Y011334D01*
X016452Y011292D01*
X016457Y011248D01*
X016457Y010748D01*
X016452Y010703D01*
X016437Y010661D01*
X016413Y010623D01*
X016382Y010591D01*
X016344Y010567D01*
X016301Y010553D01*
X016257Y010548D01*
X015757Y010548D01*
X015712Y010553D01*
X015670Y010567D01*
X015632Y010591D01*
X015600Y010623D01*
X015577Y010661D01*
X015562Y010703D01*
X015557Y010748D01*
X015557Y011248D01*
X015552Y011292D01*
X015537Y011334D01*
X015513Y011372D01*
X015482Y011404D01*
X015444Y011428D01*
X015401Y011443D01*
X015357Y011448D01*
X014857Y011448D01*
X014812Y011453D01*
X014770Y011467D01*
X014732Y011491D01*
X014700Y011523D01*
X014677Y011561D01*
X014662Y011603D01*
X014657Y011648D01*
X014657Y012148D01*
X014662Y012192D01*
X014677Y012234D01*
X014700Y012272D01*
X014732Y012304D01*
X014770Y012328D01*
X014812Y012343D01*
X014857Y012348D01*
X015357Y012348D01*
X015401Y012343D01*
X015444Y012328D01*
X015482Y012304D01*
X015513Y012272D01*
X015537Y012234D01*
X015552Y012192D01*
X015557Y012148D01*
X015557Y011648D01*
X015552Y011603D01*
X015537Y011561D01*
X015513Y011523D01*
X015482Y011491D01*
X015444Y011467D01*
X015401Y011453D01*
X015357Y011448D01*
X014857Y011448D01*
X014812Y011443D01*
X014770Y011428D01*
X014732Y011404D01*
X014700Y011372D01*
X014677Y011334D01*
X014662Y011292D01*
X014657Y011248D01*
X014657Y010748D01*
X014652Y010703D01*
X014637Y010661D01*
X014613Y010623D01*
X014582Y010591D01*
X014544Y010567D01*
X014501Y010553D01*
X014457Y010548D01*
X013957Y010548D01*
X013912Y010553D01*
X013870Y010567D01*
X013832Y010591D01*
X013800Y010623D01*
X013777Y010661D01*
X013762Y010703D01*
X013757Y010748D01*
X013757Y011248D01*
X013762Y011292D01*
X013777Y011334D01*
X013800Y011372D01*
X013789Y011353D02*
X014689Y011353D01*
X014661Y011280D02*
X013760Y011280D01*
X013757Y011206D02*
X014657Y011206D01*
X014657Y011133D02*
X013757Y011133D01*
X013757Y011059D02*
X014657Y011059D01*
X014657Y010986D02*
X013757Y010986D01*
X013757Y010912D02*
X014657Y010912D01*
X014657Y010839D02*
X013757Y010839D01*
X013757Y010765D02*
X014657Y010765D01*
X014648Y010692D02*
X013766Y010692D01*
X013805Y010618D02*
X014609Y010618D01*
X014769Y011427D02*
X013869Y011427D01*
X014591Y011500D02*
X015491Y011500D01*
X015445Y011427D02*
X016345Y011427D01*
X016425Y011353D02*
X015525Y011353D01*
X015553Y011280D02*
X016453Y011280D01*
X016457Y011206D02*
X015557Y011206D01*
X015557Y011133D02*
X016457Y011133D01*
X016457Y011059D02*
X015557Y011059D01*
X015557Y010986D02*
X016457Y010986D01*
X016457Y010912D02*
X015557Y010912D01*
X015557Y010839D02*
X016457Y010839D01*
X016457Y010765D02*
X015557Y010765D01*
X015566Y010692D02*
X016448Y010692D01*
X016409Y010618D02*
X015605Y010618D01*
X015623Y011500D02*
X014723Y011500D01*
X014672Y011574D02*
X015572Y011574D01*
X015542Y011574D02*
X014642Y011574D01*
X014657Y011647D02*
X015557Y011647D01*
X014657Y011647D01*
X014657Y011721D02*
X015557Y011721D01*
X014657Y011721D01*
X014657Y011794D02*
X015557Y011794D01*
X014657Y011794D01*
X014657Y011868D02*
X015557Y011868D01*
X014657Y011868D01*
X014657Y011941D02*
X015557Y011941D01*
X014657Y011941D01*
X014657Y012015D02*
X015557Y012015D01*
X014657Y012015D01*
X014657Y012088D02*
X015557Y012088D01*
X014657Y012088D01*
X014658Y012162D02*
X015555Y012162D01*
X014658Y012162D01*
X014677Y012235D02*
X015536Y012235D01*
X014677Y012235D01*
X014740Y012309D02*
X015474Y012309D01*
X014740Y012309D01*
X014563Y012423D02*
X014532Y012391D01*
X014494Y012367D01*
X014451Y012353D01*
X014407Y012348D01*
X013907Y012348D01*
X013862Y012353D01*
X013820Y012367D01*
X013782Y012391D01*
X013750Y012423D01*
X013727Y012461D01*
X013712Y012503D01*
X013707Y012548D01*
X013707Y013048D01*
X013712Y013092D01*
X013727Y013134D01*
X013750Y013172D01*
X013782Y013204D01*
X013820Y013228D01*
X013862Y013243D01*
X013907Y013248D01*
X014407Y013248D01*
X014451Y013253D01*
X014494Y013267D01*
X014532Y013291D01*
X014563Y013323D01*
X014587Y013361D01*
X014602Y013403D01*
X014607Y013448D01*
X015507Y013448D01*
X015502Y013403D01*
X015487Y013361D01*
X015463Y013323D01*
X015432Y013291D01*
X015394Y013267D01*
X015351Y013253D01*
X015307Y013248D01*
X014807Y013248D01*
X014762Y013243D01*
X014720Y013228D01*
X014682Y013204D01*
X014650Y013172D01*
X014627Y013134D01*
X014612Y013092D01*
X014607Y013048D01*
X014607Y012548D01*
X014602Y012503D01*
X014587Y012461D01*
X014563Y012423D01*
X014584Y012456D02*
X013730Y012456D01*
X013709Y012529D02*
X014605Y012529D01*
X014607Y012603D02*
X013707Y012603D01*
X013707Y012676D02*
X014607Y012676D01*
X014607Y012750D02*
X013707Y012750D01*
X013707Y012823D02*
X014607Y012823D01*
X014607Y012897D02*
X013707Y012897D01*
X013707Y012970D02*
X014607Y012970D01*
X014607Y013044D02*
X013707Y013044D01*
X013721Y013117D02*
X014621Y013117D01*
X014669Y013191D02*
X013769Y013191D01*
X014485Y013264D02*
X015385Y013264D01*
X015473Y013338D02*
X014573Y013338D01*
X014603Y013411D02*
X015503Y013411D01*
X015725Y013172D02*
X015757Y013204D01*
X015795Y013228D01*
X015837Y013243D01*
X015882Y013248D01*
X016382Y013248D01*
X016426Y013243D01*
X016469Y013228D01*
X016507Y013204D01*
X016538Y013172D01*
X016562Y013134D01*
X016577Y013092D01*
X016582Y013048D01*
X016582Y012548D01*
X016587Y012503D01*
X016602Y012461D01*
X016625Y012423D01*
X016657Y012391D01*
X016695Y012367D01*
X016737Y012353D01*
X016782Y012348D01*
X017282Y012348D01*
X017326Y012343D01*
X017369Y012328D01*
X017407Y012304D01*
X017438Y012272D01*
X017462Y012234D01*
X017477Y012192D01*
X017482Y012148D01*
X017482Y011648D01*
X017477Y011603D01*
X017462Y011561D01*
X017438Y011523D01*
X017407Y011491D01*
X017369Y011467D01*
X017326Y011453D01*
X017282Y011448D01*
X016782Y011448D01*
X016737Y011453D01*
X016695Y011467D01*
X016657Y011491D01*
X016625Y011523D01*
X016602Y011561D01*
X016587Y011603D01*
X016582Y011648D01*
X016582Y012148D01*
X016577Y012192D01*
X016562Y012234D01*
X016538Y012272D01*
X016507Y012304D01*
X016469Y012328D01*
X016426Y012343D01*
X016382Y012348D01*
X015882Y012348D01*
X015837Y012353D01*
X015795Y012367D01*
X015757Y012391D01*
X015725Y012423D01*
X015702Y012461D01*
X015687Y012503D01*
X015682Y012548D01*
X015682Y013048D01*
X015687Y013092D01*
X015702Y013134D01*
X015725Y013172D01*
X015744Y013191D02*
X016520Y013191D01*
X016568Y013117D02*
X015696Y013117D01*
X015682Y013044D02*
X016582Y013044D01*
X016582Y012970D02*
X015682Y012970D01*
X015682Y012897D02*
X016582Y012897D01*
X016582Y012823D02*
X015682Y012823D01*
X015682Y012750D02*
X016582Y012750D01*
X016582Y012676D02*
X015682Y012676D01*
X015682Y012603D02*
X016582Y012603D01*
X016584Y012529D02*
X015684Y012529D01*
X015705Y012456D02*
X016605Y012456D01*
X016671Y012382D02*
X015771Y012382D01*
X016499Y012309D02*
X017399Y012309D01*
X017461Y012235D02*
X016561Y012235D01*
X016580Y012162D02*
X017480Y012162D01*
X017482Y012088D02*
X016582Y012088D01*
X016582Y012015D02*
X017482Y012015D01*
X017482Y011941D02*
X016582Y011941D01*
X016582Y011868D02*
X017482Y011868D01*
X017482Y011794D02*
X016582Y011794D01*
X016582Y011721D02*
X017482Y011721D01*
X017482Y011647D02*
X016582Y011647D01*
X016597Y011574D02*
X017467Y011574D01*
X017416Y011500D02*
X016648Y011500D01*
X017707Y011823D02*
X017757Y011823D01*
X017757Y010323D01*
X017707Y010323D01*
X017707Y011823D02*
X017684Y011825D01*
X017661Y011830D01*
X017639Y011839D01*
X017619Y011852D01*
X017601Y011867D01*
X017586Y011885D01*
X017573Y011905D01*
X017564Y011927D01*
X017559Y011950D01*
X017557Y011973D01*
X017559Y011996D01*
X017564Y012019D01*
X017573Y012041D01*
X017586Y012061D01*
X017601Y012079D01*
X017619Y012094D01*
X017639Y012107D01*
X017661Y012116D01*
X017684Y012121D01*
X017707Y012123D01*
X017757Y012123D01*
X017757Y013623D01*
X017707Y013623D01*
X014518Y012382D02*
X013796Y012382D01*
X013574Y012309D02*
X012674Y012309D01*
X011802Y012192D02*
X011807Y012148D01*
X011807Y011648D01*
X011802Y011603D01*
X011787Y011561D01*
X011763Y011523D01*
X011732Y011491D01*
X011694Y011467D01*
X011651Y011453D01*
X011607Y011448D01*
X011107Y011448D01*
X011062Y011443D01*
X011020Y011428D01*
X010982Y011404D01*
X010950Y011372D01*
X010927Y011334D01*
X010912Y011292D01*
X010907Y011248D01*
X010907Y010748D01*
X010902Y010703D01*
X010887Y010661D01*
X010863Y010623D01*
X010832Y010591D01*
X010794Y010567D01*
X010751Y010553D01*
X010707Y010548D01*
X010707Y011448D01*
X010751Y011453D01*
X010794Y011467D01*
X010832Y011491D01*
X010863Y011523D01*
X010887Y011561D01*
X010902Y011603D01*
X010907Y011648D01*
X010907Y012148D01*
X010912Y012192D01*
X010927Y012234D01*
X010950Y012272D01*
X010982Y012304D01*
X011020Y012328D01*
X011062Y012343D01*
X011107Y012348D01*
X011607Y012348D01*
X011651Y012343D01*
X011694Y012328D01*
X011732Y012304D01*
X011763Y012272D01*
X011787Y012234D01*
X011802Y012192D01*
X011805Y012162D02*
X010908Y012162D01*
X010907Y012088D02*
X011807Y012088D01*
X011807Y012015D02*
X010907Y012015D01*
X010907Y011941D02*
X011807Y011941D01*
X011807Y011868D02*
X010907Y011868D01*
X010907Y011794D02*
X011807Y011794D01*
X011807Y011721D02*
X010907Y011721D01*
X010907Y011647D02*
X011807Y011647D01*
X011792Y011574D02*
X010892Y011574D01*
X010841Y011500D02*
X011741Y011500D01*
X011889Y011353D02*
X012789Y011353D01*
X012761Y011280D02*
X011860Y011280D01*
X011857Y011206D02*
X012757Y011206D01*
X012757Y011133D02*
X011857Y011133D01*
X011857Y011059D02*
X012757Y011059D01*
X012757Y010986D02*
X011857Y010986D01*
X011857Y010912D02*
X012757Y010912D01*
X012757Y010839D02*
X011857Y010839D01*
X011857Y010765D02*
X012757Y010765D01*
X012748Y010692D02*
X011866Y010692D01*
X011905Y010618D02*
X012709Y010618D01*
X012869Y011427D02*
X011969Y011427D01*
X011786Y012235D02*
X010927Y012235D01*
X010990Y012309D02*
X011724Y012309D01*
X011019Y011427D02*
X010707Y011427D01*
X010707Y011353D02*
X010939Y011353D01*
X010911Y011280D02*
X010707Y011280D01*
X010707Y011206D02*
X010907Y011206D01*
X010907Y011133D02*
X010707Y011133D01*
X010707Y011059D02*
X010907Y011059D01*
X010907Y010986D02*
X010707Y010986D01*
X010707Y010912D02*
X010907Y010912D01*
X010907Y010839D02*
X010707Y010839D01*
X010707Y010765D02*
X010907Y010765D01*
X010898Y010692D02*
X010707Y010692D01*
X010707Y010618D02*
X010859Y010618D01*
X011919Y013191D02*
X012695Y013191D01*
X010432Y016248D02*
X010507Y016323D01*
X010507Y016648D01*
X010582Y016723D01*
D11*
X012142Y008028D02*
X012071Y007958D01*
X012071Y007818D01*
X012142Y007748D01*
X012071Y007568D02*
X012352Y007568D01*
X012492Y007428D01*
X012352Y007288D01*
X012071Y007288D01*
X012492Y007748D02*
X012212Y008028D01*
X012142Y008028D01*
X012492Y008028D02*
X012492Y007748D01*
D12*
X018082Y014623D02*
X018082Y014773D01*
X018032Y014773D02*
X018432Y014773D01*
X018432Y014623D01*
X018257Y014623D02*
X018257Y014773D01*
X018032Y014773D02*
X018015Y014775D01*
X017998Y014779D01*
X017982Y014786D01*
X017968Y014796D01*
X017955Y014809D01*
X017945Y014823D01*
X017938Y014839D01*
X017934Y014856D01*
X017932Y014873D01*
X017932Y015323D01*
X017934Y015340D01*
X017938Y015357D01*
X017945Y015373D01*
X017955Y015387D01*
X017968Y015400D01*
X017982Y015410D01*
X017998Y015417D01*
X018015Y015421D01*
X018032Y015423D01*
X018082Y015423D01*
X018082Y015573D01*
X018082Y015423D02*
X018257Y015423D01*
X018257Y015573D01*
X018257Y015423D02*
X018432Y015423D01*
X018432Y015573D01*
X018432Y015423D02*
X018607Y015423D01*
X018607Y015573D01*
X018607Y015423D02*
X018657Y015423D01*
X018674Y015421D01*
X018691Y015417D01*
X018707Y015410D01*
X018721Y015400D01*
X018734Y015387D01*
X018744Y015373D01*
X018751Y015357D01*
X018755Y015340D01*
X018757Y015323D01*
X018757Y015173D01*
D13*
X018342Y015058D02*
X018344Y015082D01*
X018350Y015106D01*
X018359Y015128D01*
X018372Y015148D01*
X018388Y015166D01*
X018407Y015181D01*
X018428Y015194D01*
X018450Y015202D01*
X018474Y015207D01*
X018498Y015208D01*
X018522Y015205D01*
X018545Y015198D01*
X018567Y015188D01*
X018587Y015174D01*
X018604Y015157D01*
X018619Y015138D01*
X018630Y015117D01*
X018638Y015094D01*
X018642Y015070D01*
X018642Y015046D01*
X018638Y015022D01*
X018630Y014999D01*
X018619Y014978D01*
X018604Y014959D01*
X018587Y014942D01*
X018567Y014928D01*
X018545Y014918D01*
X018522Y014911D01*
X018498Y014908D01*
X018474Y014909D01*
X018450Y014914D01*
X018428Y014922D01*
X018407Y014935D01*
X018388Y014950D01*
X018372Y014968D01*
X018359Y014988D01*
X018350Y015010D01*
X018344Y015034D01*
X018342Y015058D01*
X018547Y014908D02*
X018622Y014658D01*
D14*
X010057Y007173D02*
X010057Y006923D01*
X010057Y007006D02*
X010182Y007006D01*
X010224Y007048D01*
X010224Y007131D01*
X010182Y007173D01*
X010057Y007173D01*
X010140Y007006D02*
X010224Y006923D01*
X010333Y006923D02*
X010500Y006923D01*
X010416Y006923D02*
X010416Y007173D01*
X010333Y007089D01*
X010609Y007089D02*
X010693Y007173D01*
X010693Y006923D01*
X010776Y006923D02*
X010609Y006923D01*
X010982Y006923D02*
X010982Y007173D01*
X011107Y007173D01*
X011149Y007131D01*
X011149Y007048D01*
X011107Y007006D01*
X010982Y007006D01*
X011065Y007006D02*
X011149Y006923D01*
X011258Y006923D02*
X011425Y006923D01*
X011341Y006923D02*
X011341Y007173D01*
X011258Y007089D01*
X011534Y007131D02*
X011576Y007173D01*
X011659Y007173D01*
X011701Y007131D01*
X011701Y007089D01*
X011534Y006923D01*
X011701Y006923D01*
X012907Y008139D02*
X012948Y008098D01*
X013115Y008098D01*
X013157Y008139D01*
X013157Y008223D01*
X013115Y008264D01*
X013157Y008374D02*
X012990Y008541D01*
X012948Y008541D01*
X012907Y008499D01*
X012907Y008415D01*
X012948Y008374D01*
X012948Y008264D02*
X012907Y008223D01*
X012907Y008139D01*
X013157Y008374D02*
X013157Y008541D01*
X013307Y008499D02*
X013348Y008541D01*
X013390Y008541D01*
X013432Y008499D01*
X013473Y008541D01*
X013515Y008541D01*
X013557Y008499D01*
X013557Y008415D01*
X013515Y008374D01*
X013557Y008264D02*
X013473Y008181D01*
X013473Y008223D02*
X013473Y008098D01*
X013557Y008098D02*
X013307Y008098D01*
X013307Y008223D01*
X013348Y008264D01*
X013432Y008264D01*
X013473Y008223D01*
X013348Y008374D02*
X013307Y008415D01*
X013307Y008499D01*
X013432Y008499D02*
X013432Y008457D01*
X013782Y008366D02*
X013823Y008366D01*
X013990Y008199D01*
X014032Y008199D01*
X013990Y008089D02*
X014032Y008048D01*
X014032Y007964D01*
X013990Y007923D01*
X013823Y007923D01*
X013782Y007964D01*
X013782Y008048D01*
X013823Y008089D01*
X013782Y008199D02*
X013782Y008366D01*
X014157Y008689D02*
X014199Y008648D01*
X014282Y008648D01*
X014324Y008689D01*
X014433Y008648D02*
X014600Y008648D01*
X014516Y008648D02*
X014516Y008898D01*
X014433Y008814D01*
X014324Y008856D02*
X014282Y008898D01*
X014199Y008898D01*
X014157Y008856D01*
X014157Y008689D01*
X014709Y008689D02*
X014751Y008648D01*
X014834Y008648D01*
X014876Y008689D01*
X014876Y008773D01*
X014834Y008814D01*
X014793Y008814D01*
X014709Y008773D01*
X014709Y008898D01*
X014876Y008898D01*
X013557Y007549D02*
X013307Y007549D01*
X013432Y007424D01*
X013432Y007591D01*
X013432Y007314D02*
X013473Y007273D01*
X013473Y007148D01*
X013473Y007231D02*
X013557Y007314D01*
X013432Y007314D02*
X013348Y007314D01*
X013307Y007273D01*
X013307Y007148D01*
X013557Y007148D01*
X015007Y007048D02*
X015090Y007048D01*
X015049Y007048D02*
X015049Y007298D01*
X015090Y007298D02*
X015007Y007298D01*
X015191Y007256D02*
X015191Y007089D01*
X015233Y007048D01*
X015316Y007048D01*
X015358Y007089D01*
X015467Y007089D02*
X015509Y007048D01*
X015592Y007048D01*
X015634Y007089D01*
X015634Y007131D01*
X015592Y007173D01*
X015551Y007173D01*
X015592Y007173D02*
X015634Y007214D01*
X015634Y007256D01*
X015592Y007298D01*
X015509Y007298D01*
X015467Y007256D01*
X015358Y007256D02*
X015316Y007298D01*
X015233Y007298D01*
X015191Y007256D01*
X012732Y008564D02*
X012732Y008648D01*
X012690Y008689D01*
X012732Y008799D02*
X012732Y008966D01*
X012732Y008882D02*
X012482Y008882D01*
X012565Y008799D01*
X012523Y008689D02*
X012482Y008648D01*
X012482Y008564D01*
X012523Y008523D01*
X012690Y008523D01*
X012732Y008564D01*
X012332Y008564D02*
X012332Y008648D01*
X012290Y008689D01*
X012332Y008799D02*
X012332Y008966D01*
X012332Y008882D02*
X012082Y008882D01*
X012165Y008799D01*
X012123Y008689D02*
X012082Y008648D01*
X012082Y008564D01*
X012123Y008523D01*
X012290Y008523D01*
X012332Y008564D01*
X012290Y009075D02*
X012332Y009117D01*
X012332Y009200D01*
X012290Y009242D01*
X012248Y009242D01*
X012207Y009200D01*
X012207Y009158D01*
X012207Y009200D02*
X012165Y009242D01*
X012123Y009242D01*
X012082Y009200D01*
X012082Y009117D01*
X012123Y009075D01*
X012482Y009200D02*
X012607Y009075D01*
X012607Y009242D01*
X012732Y009200D02*
X012482Y009200D01*
X011659Y009398D02*
X011492Y009398D01*
X011576Y009398D02*
X011576Y009648D01*
X011492Y009564D01*
X011383Y009606D02*
X011341Y009648D01*
X011258Y009648D01*
X011216Y009606D01*
X011216Y009439D01*
X011258Y009398D01*
X011341Y009398D01*
X011383Y009439D01*
X011115Y009398D02*
X011032Y009398D01*
X011074Y009398D02*
X011074Y009648D01*
X011115Y009648D02*
X011032Y009648D01*
X011057Y008623D02*
X011140Y008623D01*
X011099Y008623D02*
X011099Y008373D01*
X011140Y008373D02*
X011057Y008373D01*
X011241Y008414D02*
X011283Y008373D01*
X011366Y008373D01*
X011408Y008414D01*
X011517Y008498D02*
X011684Y008498D01*
X011642Y008623D02*
X011517Y008498D01*
X011408Y008581D02*
X011366Y008623D01*
X011283Y008623D01*
X011241Y008581D01*
X011241Y008414D01*
X011642Y008373D02*
X011642Y008623D01*
X010409Y011273D02*
X010326Y011273D01*
X010284Y011314D01*
X010451Y011481D01*
X010451Y011314D01*
X010409Y011273D01*
X010284Y011314D02*
X010284Y011481D01*
X010326Y011523D01*
X010409Y011523D01*
X010451Y011481D01*
X010200Y011714D02*
X010200Y011881D01*
X010158Y011923D01*
X010075Y011923D01*
X010033Y011881D01*
X010033Y011839D01*
X010075Y011798D01*
X010200Y011798D01*
X010200Y011714D02*
X010158Y011673D01*
X010075Y011673D01*
X010033Y011714D01*
X009924Y011673D02*
X009840Y011756D01*
X009882Y011756D02*
X009757Y011756D01*
X009757Y011673D02*
X009757Y011923D01*
X009882Y011923D01*
X009924Y011881D01*
X009924Y011798D01*
X009882Y011756D01*
X009857Y011523D02*
X009732Y011523D01*
X009732Y011273D01*
X009732Y011356D02*
X009857Y011356D01*
X009899Y011398D01*
X009899Y011481D01*
X009857Y011523D01*
X009815Y011356D02*
X009899Y011273D01*
X010008Y011273D02*
X010175Y011273D01*
X010091Y011273D02*
X010091Y011523D01*
X010008Y011439D01*
X010075Y012073D02*
X010033Y012114D01*
X010033Y012156D01*
X010075Y012198D01*
X010158Y012198D01*
X010200Y012156D01*
X010200Y012114D01*
X010158Y012073D01*
X010075Y012073D01*
X010075Y012198D02*
X010033Y012239D01*
X010033Y012281D01*
X010075Y012323D01*
X010158Y012323D01*
X010200Y012281D01*
X010200Y012239D01*
X010158Y012198D01*
X009924Y012198D02*
X009882Y012156D01*
X009757Y012156D01*
X009840Y012156D02*
X009924Y012073D01*
X009924Y012198D02*
X009924Y012281D01*
X009882Y012323D01*
X009757Y012323D01*
X009757Y012073D01*
X009757Y012473D02*
X009757Y012723D01*
X009882Y012723D01*
X009924Y012681D01*
X009924Y012598D01*
X009882Y012556D01*
X009757Y012556D01*
X009840Y012556D02*
X009924Y012473D01*
X010033Y012473D02*
X010033Y012514D01*
X010200Y012681D01*
X010200Y012723D01*
X010033Y012723D01*
X011032Y014498D02*
X011115Y014498D01*
X011074Y014498D02*
X011074Y014748D01*
X011115Y014748D02*
X011032Y014748D01*
X011216Y014706D02*
X011216Y014539D01*
X011258Y014498D01*
X011341Y014498D01*
X011383Y014539D01*
X011492Y014539D02*
X011534Y014498D01*
X011617Y014498D01*
X011659Y014539D01*
X011659Y014623D01*
X011617Y014664D01*
X011576Y014664D01*
X011492Y014623D01*
X011492Y014748D01*
X011659Y014748D01*
X011383Y014706D02*
X011341Y014748D01*
X011258Y014748D01*
X011216Y014706D01*
X011549Y015073D02*
X011632Y015073D01*
X011674Y015114D01*
X011783Y015073D02*
X011950Y015073D01*
X011866Y015073D02*
X011866Y015323D01*
X011783Y015239D01*
X011674Y015281D02*
X011632Y015323D01*
X011549Y015323D01*
X011507Y015281D01*
X011507Y015114D01*
X011549Y015073D01*
X012059Y015073D02*
X012226Y015239D01*
X012226Y015281D01*
X012184Y015323D01*
X012101Y015323D01*
X012059Y015281D01*
X012059Y015073D02*
X012226Y015073D01*
X012757Y015008D02*
X013007Y015008D01*
X013007Y014925D02*
X013007Y015092D01*
X012840Y014925D02*
X012757Y015008D01*
X012757Y014732D02*
X013007Y014732D01*
X013007Y014649D02*
X013007Y014816D01*
X012840Y014649D02*
X012757Y014732D01*
X012798Y014539D02*
X012757Y014498D01*
X012757Y014414D01*
X012798Y014373D01*
X012965Y014373D01*
X013007Y014414D01*
X013007Y014498D01*
X012965Y014539D01*
X012257Y015698D02*
X012007Y015698D01*
X012007Y015823D01*
X012048Y015864D01*
X012132Y015864D01*
X012173Y015823D01*
X012173Y015698D01*
X012173Y015781D02*
X012257Y015864D01*
X012257Y015974D02*
X012257Y016141D01*
X012257Y016057D02*
X012007Y016057D01*
X012090Y015974D01*
X011857Y015974D02*
X011690Y016141D01*
X011648Y016141D01*
X011607Y016099D01*
X011607Y016015D01*
X011648Y015974D01*
X011648Y015864D02*
X011732Y015864D01*
X011773Y015823D01*
X011773Y015698D01*
X011773Y015781D02*
X011857Y015864D01*
X011857Y015974D02*
X011857Y016141D01*
X011648Y015864D02*
X011607Y015823D01*
X011607Y015698D01*
X011857Y015698D01*
X011108Y016798D02*
X011150Y016839D01*
X011150Y016881D01*
X011108Y016923D01*
X010983Y016923D01*
X010983Y016839D01*
X011025Y016798D01*
X011108Y016798D01*
X010983Y016923D02*
X011066Y017006D01*
X011150Y017048D01*
X010874Y017006D02*
X010874Y016923D01*
X010832Y016881D01*
X010707Y016881D01*
X010790Y016881D02*
X010874Y016798D01*
X010707Y016798D02*
X010707Y017048D01*
X010832Y017048D01*
X010874Y017006D01*
X010400Y017048D02*
X010233Y017048D01*
X010233Y016923D01*
X010316Y016964D01*
X010358Y016964D01*
X010400Y016923D01*
X010400Y016839D01*
X010358Y016798D01*
X010275Y016798D01*
X010233Y016839D01*
X010124Y016798D02*
X010040Y016881D01*
X010082Y016881D02*
X009957Y016881D01*
X009957Y016798D02*
X009957Y017048D01*
X010082Y017048D01*
X010124Y017006D01*
X010124Y016923D01*
X010082Y016881D01*
X014082Y016948D02*
X014165Y016948D01*
X014124Y016948D02*
X014124Y016698D01*
X014165Y016698D02*
X014082Y016698D01*
X014266Y016739D02*
X014266Y016906D01*
X014308Y016948D01*
X014391Y016948D01*
X014433Y016906D01*
X014542Y016906D02*
X014584Y016948D01*
X014667Y016948D01*
X014709Y016906D01*
X014709Y016864D01*
X014542Y016698D01*
X014709Y016698D01*
X014433Y016739D02*
X014391Y016698D01*
X014308Y016698D01*
X014266Y016739D01*
X015307Y016046D02*
X015432Y015921D01*
X015432Y016088D01*
X015557Y016046D02*
X015307Y016046D01*
X015348Y015812D02*
X015307Y015770D01*
X015307Y015687D01*
X015348Y015645D01*
X015515Y015645D01*
X015557Y015687D01*
X015557Y015770D01*
X015515Y015812D01*
X015316Y015473D02*
X015316Y015223D01*
X015233Y015223D02*
X015400Y015223D01*
X015233Y015389D02*
X015316Y015473D01*
X015124Y015431D02*
X015082Y015473D01*
X014999Y015473D01*
X014957Y015431D01*
X014957Y015264D01*
X014999Y015223D01*
X015082Y015223D01*
X015124Y015264D01*
X014832Y015050D02*
X014832Y014967D01*
X014790Y014925D01*
X014623Y015092D01*
X014790Y015092D01*
X014832Y015050D01*
X014790Y014925D02*
X014623Y014925D01*
X014582Y014967D01*
X014582Y015050D01*
X014623Y015092D01*
X014832Y014816D02*
X014832Y014649D01*
X014832Y014732D02*
X014582Y014732D01*
X014665Y014649D01*
X014623Y014539D02*
X014582Y014498D01*
X014582Y014414D01*
X014623Y014373D01*
X014790Y014373D01*
X014832Y014414D01*
X014832Y014498D01*
X014790Y014539D01*
X015557Y014531D02*
X015557Y014364D01*
X015599Y014323D01*
X015682Y014323D01*
X015724Y014364D01*
X015833Y014364D02*
X015875Y014323D01*
X015958Y014323D01*
X016000Y014364D01*
X016000Y014531D01*
X015958Y014573D01*
X015875Y014573D01*
X015833Y014531D01*
X015833Y014489D01*
X015875Y014448D01*
X016000Y014448D01*
X015724Y014531D02*
X015682Y014573D01*
X015599Y014573D01*
X015557Y014531D01*
X015832Y015223D02*
X015999Y015473D01*
X016108Y015389D02*
X016191Y015473D01*
X016191Y015223D01*
X016108Y015223D02*
X016275Y015223D01*
X015999Y015223D02*
X015832Y015473D01*
X016557Y014749D02*
X016598Y014791D01*
X016640Y014791D01*
X016682Y014749D01*
X016682Y014665D01*
X016640Y014624D01*
X016598Y014624D01*
X016557Y014665D01*
X016557Y014749D01*
X016682Y014749D02*
X016723Y014791D01*
X016765Y014791D01*
X016807Y014749D01*
X016807Y014665D01*
X016765Y014624D01*
X016723Y014624D01*
X016682Y014665D01*
X016765Y014514D02*
X016807Y014473D01*
X016807Y014389D01*
X016765Y014348D01*
X016598Y014348D01*
X016557Y014389D01*
X016557Y014473D01*
X016598Y014514D01*
X017386Y013323D02*
X017388Y013339D01*
X017394Y013355D01*
X017403Y013369D01*
X017415Y013380D01*
X017429Y013388D01*
X017445Y013393D01*
X017461Y013394D01*
X017477Y013391D01*
X017492Y013384D01*
X017506Y013375D01*
X017516Y013362D01*
X017524Y013347D01*
X017528Y013331D01*
X017528Y013315D01*
X017524Y013299D01*
X017516Y013284D01*
X017506Y013271D01*
X017493Y013262D01*
X017477Y013255D01*
X017461Y013252D01*
X017445Y013253D01*
X017429Y013258D01*
X017415Y013266D01*
X017403Y013277D01*
X017394Y013291D01*
X017388Y013307D01*
X017386Y013323D01*
X019132Y013873D02*
X019299Y013873D01*
X019408Y013873D02*
X019575Y014039D01*
X019575Y014081D01*
X019533Y014123D01*
X019450Y014123D01*
X019408Y014081D01*
X019408Y013873D02*
X019575Y013873D01*
X019132Y013873D02*
X019132Y014123D01*
X017665Y015645D02*
X017498Y015645D01*
X017457Y015687D01*
X017457Y015770D01*
X017498Y015812D01*
X017498Y015921D02*
X017457Y015963D01*
X017457Y016046D01*
X017498Y016088D01*
X017540Y016088D01*
X017582Y016046D01*
X017623Y016088D01*
X017665Y016088D01*
X017707Y016046D01*
X017707Y015963D01*
X017665Y015921D01*
X017665Y015812D02*
X017707Y015770D01*
X017707Y015687D01*
X017665Y015645D01*
X017582Y016005D02*
X017582Y016046D01*
X018232Y009673D02*
X018232Y009423D01*
X018399Y009423D01*
X018508Y009423D02*
X018675Y009423D01*
X018591Y009423D02*
X018591Y009673D01*
X018508Y009589D01*
X019107Y008755D02*
X019357Y008755D01*
X019357Y008838D02*
X019357Y008671D01*
X019190Y008671D02*
X019107Y008755D01*
X019107Y008562D02*
X019107Y008395D01*
X019357Y008395D01*
X019232Y008395D02*
X019232Y008478D01*
X018457Y008024D02*
X018457Y007940D01*
X018415Y007899D01*
X018332Y007899D02*
X018290Y007982D01*
X018290Y008024D01*
X018332Y008066D01*
X018415Y008066D01*
X018457Y008024D01*
X018332Y007899D02*
X018207Y007899D01*
X018207Y008066D01*
X018248Y007789D02*
X018207Y007748D01*
X018207Y007664D01*
X018248Y007623D01*
X018415Y007623D01*
X018457Y007664D01*
X018457Y007748D01*
X018415Y007789D01*
D15*
X010502Y008923D02*
X010002Y008923D01*
X010262Y015023D02*
X010762Y015023D01*
X013757Y015773D02*
X013757Y016273D01*
D16*
X015827Y016223D02*
X016187Y016223D01*
X016387Y015883D02*
X016387Y015693D01*
X016627Y015693D01*
X016627Y015883D01*
X016387Y015883D01*
X016387Y015789D02*
X016627Y015789D01*
X016827Y016223D02*
X017187Y016223D01*
X016627Y016563D02*
X016387Y016563D01*
X016387Y016753D01*
X016627Y016753D01*
X016627Y016563D01*
X016627Y016577D02*
X016387Y016577D01*
X016387Y016675D02*
X016627Y016675D01*
X018307Y014103D02*
X018307Y013843D01*
X018307Y010103D02*
X018307Y009843D01*
X018927Y009588D02*
X019287Y009588D01*
X019287Y009408D01*
X018927Y009408D01*
X018927Y009588D01*
X018927Y009580D02*
X019287Y009580D01*
X019287Y009482D02*
X018927Y009482D01*
X018612Y008848D02*
X018352Y008848D01*
X017196Y009502D02*
X015818Y009502D01*
X015818Y009053D01*
X014687Y008063D02*
X014687Y007883D01*
X014327Y007883D01*
X014327Y008063D01*
X014687Y008063D01*
X014687Y008004D02*
X014327Y008004D01*
X014327Y007905D02*
X014687Y007905D01*
X015818Y007392D02*
X015818Y006943D01*
X017196Y006943D01*
X014062Y009298D02*
X013802Y009298D01*
X010607Y008923D02*
X010609Y008945D01*
X010615Y008966D01*
X010624Y008985D01*
X010636Y009003D01*
X010652Y009019D01*
X010669Y009031D01*
X010689Y009040D01*
X010710Y009046D01*
X010732Y009048D01*
X010754Y009046D01*
X010775Y009040D01*
X010794Y009031D01*
X010812Y009019D01*
X010828Y009003D01*
X010840Y008985D01*
X010849Y008966D01*
X010855Y008945D01*
X010857Y008923D01*
X010855Y008901D01*
X010849Y008880D01*
X010840Y008861D01*
X010828Y008843D01*
X010812Y008827D01*
X010795Y008815D01*
X010775Y008806D01*
X010754Y008800D01*
X010732Y008798D01*
X010710Y008800D01*
X010689Y008806D01*
X010669Y008815D01*
X010652Y008827D01*
X010636Y008843D01*
X010624Y008860D01*
X010615Y008880D01*
X010609Y008901D01*
X010607Y008923D01*
X009907Y015023D02*
X009909Y015045D01*
X009915Y015066D01*
X009924Y015085D01*
X009936Y015103D01*
X009952Y015119D01*
X009969Y015131D01*
X009989Y015140D01*
X010010Y015146D01*
X010032Y015148D01*
X010054Y015146D01*
X010075Y015140D01*
X010094Y015131D01*
X010112Y015119D01*
X010128Y015103D01*
X010140Y015085D01*
X010149Y015066D01*
X010155Y015045D01*
X010157Y015023D01*
X010155Y015001D01*
X010149Y014980D01*
X010140Y014961D01*
X010128Y014943D01*
X010112Y014927D01*
X010095Y014915D01*
X010075Y014906D01*
X010054Y014900D01*
X010032Y014898D01*
X010010Y014900D01*
X009989Y014906D01*
X009969Y014915D01*
X009952Y014927D01*
X009936Y014943D01*
X009924Y014960D01*
X009915Y014980D01*
X009909Y015001D01*
X009907Y015023D01*
D17*
X010082Y015948D02*
X010082Y016148D01*
X010082Y016373D02*
X010082Y016573D01*
X011957Y016523D02*
X012157Y016523D01*
X012407Y016523D02*
X012607Y016523D01*
X012607Y014998D02*
X012407Y014998D01*
X013182Y014573D02*
X013382Y014573D01*
X014182Y014573D02*
X014382Y014573D01*
X015182Y014573D02*
X015382Y014573D01*
X016182Y014573D02*
X016382Y014573D01*
X014907Y015848D02*
X014707Y015848D01*
X015332Y016498D02*
X015532Y016498D01*
X017482Y016498D02*
X017682Y016498D01*
X010132Y013848D02*
X009932Y013848D01*
X009932Y013123D02*
X010132Y013123D01*
X010132Y010848D02*
X009932Y010848D01*
X009932Y010098D02*
X010132Y010098D01*
X012232Y009623D02*
X012232Y009423D01*
X013182Y009373D02*
X013382Y009373D01*
X014307Y009373D02*
X014507Y009373D01*
X015307Y009348D02*
X015307Y009148D01*
X014007Y007348D02*
X013807Y007348D01*
X010082Y007373D02*
X010082Y007573D01*
X010082Y007798D02*
X010082Y007998D01*
M02*
