G75*
G70*
%OFA0B0*%
%FSLAX24Y24*%
%IPPOS*%
%LPD*%
%AMOC8*
5,1,8,0,0,1.08239X$1,22.5*
%
%ADD10C,0.0679*%
%ADD11C,0.0339*%
%ADD12C,0.0700*%
%ADD13C,0.0295*%
%ADD14C,0.0100*%
%ADD15C,0.0290*%
%ADD16C,0.0130*%
%ADD17C,0.0060*%
D10*
X019257Y010713D03*
X019257Y013232D03*
D11*
X019088Y013063D02*
X019088Y013401D01*
X019426Y013401D01*
X019426Y013063D01*
X019088Y013063D01*
X019088Y013401D02*
X019426Y013401D01*
X019088Y010882D02*
X019088Y010544D01*
X019088Y010882D02*
X019426Y010882D01*
X019426Y010544D01*
X019088Y010544D01*
X019088Y010882D02*
X019426Y010882D01*
D12*
X009257Y007473D03*
X009257Y008473D03*
X009257Y009473D03*
X009257Y010473D03*
X009257Y011473D03*
X009257Y012473D03*
X009257Y013473D03*
X009257Y014473D03*
X009257Y015473D03*
X009257Y016473D03*
D13*
X012257Y016723D03*
X013257Y016723D03*
X017257Y014723D03*
X013257Y012723D03*
X013257Y010723D03*
X013257Y008723D03*
X017257Y009723D03*
X017257Y010723D03*
D14*
X017514Y010720D02*
X017573Y010778D01*
X017612Y010872D01*
X017612Y010973D01*
X017573Y011067D01*
X017501Y011139D01*
X017408Y011177D01*
X017306Y011177D01*
X017212Y011139D01*
X017141Y011067D01*
X017102Y010973D01*
X017102Y010932D01*
X017038Y010868D01*
X016999Y010774D01*
X016999Y010671D01*
X017038Y010577D01*
X017111Y010504D01*
X017206Y010465D01*
X017308Y010465D01*
X017403Y010504D01*
X017475Y010577D01*
X017514Y010671D01*
X017514Y010720D01*
X017512Y010664D02*
X018807Y010664D01*
X018807Y010623D02*
X018808Y010621D01*
X018808Y010488D01*
X018851Y010385D01*
X018929Y010307D01*
X019032Y010264D01*
X019165Y010264D01*
X019167Y010263D01*
X019346Y010263D01*
X019349Y010264D01*
X019482Y010264D01*
X019557Y010295D01*
X019557Y007952D01*
X019523Y008034D01*
X019368Y008189D01*
X019166Y008272D01*
X018947Y008272D01*
X018745Y008189D01*
X018591Y008034D01*
X018507Y007832D01*
X018507Y007613D01*
X018591Y007411D01*
X018745Y007256D01*
X018947Y007173D01*
X019166Y007173D01*
X019368Y007256D01*
X019523Y007411D01*
X019557Y007493D01*
X019557Y007422D01*
X019551Y007344D01*
X019502Y007196D01*
X019410Y007069D01*
X019284Y006977D01*
X019135Y006929D01*
X019057Y006922D01*
X019022Y006922D01*
X018974Y006922D01*
X010257Y006922D01*
X010257Y017023D01*
X019057Y017023D01*
X019135Y017016D01*
X019284Y016968D01*
X019410Y016876D01*
X019502Y016749D01*
X019551Y016601D01*
X019557Y016523D01*
X019557Y016464D01*
X019557Y016452D01*
X019523Y016534D01*
X019368Y016689D01*
X019166Y016772D01*
X018947Y016772D01*
X018745Y016689D01*
X018591Y016534D01*
X018507Y016332D01*
X018507Y016113D01*
X018591Y015911D01*
X018745Y015756D01*
X018947Y015673D01*
X019166Y015673D01*
X019368Y015756D01*
X019523Y015911D01*
X019557Y015993D01*
X019557Y013650D01*
X019482Y013681D01*
X019349Y013681D01*
X019346Y013682D01*
X019167Y013682D01*
X019165Y013681D01*
X019032Y013681D01*
X018929Y013638D01*
X018851Y013560D01*
X018808Y013457D01*
X018808Y013324D01*
X018807Y013322D01*
X018807Y013143D01*
X018808Y013141D01*
X018808Y013007D01*
X018851Y012905D01*
X018929Y012826D01*
X019032Y012784D01*
X019165Y012784D01*
X019167Y012783D01*
X019346Y012783D01*
X019349Y012784D01*
X019482Y012784D01*
X019557Y012815D01*
X019557Y011130D01*
X019482Y011161D01*
X019349Y011161D01*
X019346Y011162D01*
X019167Y011162D01*
X019165Y011161D01*
X019032Y011161D01*
X018929Y011119D01*
X018851Y011040D01*
X018808Y010938D01*
X018808Y010804D01*
X018807Y010802D01*
X018807Y010623D01*
X018808Y010566D02*
X017464Y010566D01*
X017314Y010467D02*
X018817Y010467D01*
X018867Y010369D02*
X015432Y010369D01*
X015432Y010467D02*
X017200Y010467D01*
X017049Y010566D02*
X015432Y010566D01*
X015432Y010664D02*
X017002Y010664D01*
X016999Y010763D02*
X015432Y010763D01*
X015432Y010861D02*
X017036Y010861D01*
X017102Y010960D02*
X015432Y010960D01*
X015432Y011048D02*
X015529Y011048D01*
X015632Y011150D01*
X015632Y011295D01*
X015632Y012795D01*
X015529Y012897D01*
X015384Y012897D01*
X013446Y012897D01*
X013403Y012941D01*
X013308Y012980D01*
X013206Y012980D01*
X013111Y012941D01*
X013038Y012868D01*
X012999Y012774D01*
X012999Y012671D01*
X013038Y012577D01*
X013111Y012504D01*
X013132Y012495D01*
X013132Y011150D01*
X013234Y011048D01*
X013379Y011048D01*
X014682Y011048D01*
X014682Y009650D01*
X014784Y009548D01*
X014982Y009350D01*
X014982Y007450D01*
X015084Y007348D01*
X015229Y007348D01*
X015929Y007348D01*
X016032Y007450D01*
X016032Y007595D01*
X016032Y009495D01*
X015929Y009597D01*
X015432Y010095D01*
X015432Y011048D01*
X015540Y011058D02*
X017137Y011058D01*
X017257Y011157D02*
X015632Y011157D01*
X015632Y011256D02*
X019557Y011256D01*
X019557Y011354D02*
X015632Y011354D01*
X015632Y011453D02*
X019557Y011453D01*
X019557Y011551D02*
X015632Y011551D01*
X015632Y011650D02*
X019557Y011650D01*
X019557Y011748D02*
X015632Y011748D01*
X015632Y011847D02*
X019557Y011847D01*
X019557Y011945D02*
X015632Y011945D01*
X015632Y012044D02*
X019557Y012044D01*
X019557Y012142D02*
X015632Y012142D01*
X015632Y012241D02*
X019557Y012241D01*
X019557Y012339D02*
X015632Y012339D01*
X015632Y012438D02*
X019557Y012438D01*
X019557Y012537D02*
X015632Y012537D01*
X015632Y012635D02*
X019557Y012635D01*
X019557Y012734D02*
X015632Y012734D01*
X015595Y012832D02*
X018923Y012832D01*
X018840Y012931D02*
X013413Y012931D01*
X013101Y012931D02*
X010257Y012931D01*
X010257Y013029D02*
X018808Y013029D01*
X018808Y013128D02*
X010257Y013128D01*
X010257Y013226D02*
X018807Y013226D01*
X018808Y013325D02*
X010257Y013325D01*
X010257Y013423D02*
X018808Y013423D01*
X018835Y013522D02*
X010257Y013522D01*
X010257Y013621D02*
X018911Y013621D01*
X019557Y013719D02*
X010257Y013719D01*
X010257Y013818D02*
X019557Y013818D01*
X019557Y013916D02*
X010257Y013916D01*
X010257Y014015D02*
X019557Y014015D01*
X019557Y014113D02*
X010257Y014113D01*
X010257Y014212D02*
X019557Y014212D01*
X019557Y014310D02*
X010257Y014310D01*
X010257Y014409D02*
X011735Y014409D01*
X011737Y014406D02*
X011831Y014368D01*
X011933Y014368D01*
X012026Y014406D01*
X012098Y014478D01*
X012137Y014572D01*
X012137Y014673D01*
X012098Y014767D01*
X012026Y014839D01*
X011933Y014877D01*
X011831Y014877D01*
X011737Y014839D01*
X011725Y014826D01*
X011537Y015015D01*
X011537Y015073D01*
X011498Y015167D01*
X011426Y015239D01*
X011333Y015277D01*
X011231Y015277D01*
X011137Y015239D01*
X011066Y015167D01*
X011027Y015073D01*
X011027Y014972D01*
X011066Y014878D01*
X011137Y014806D01*
X011231Y014768D01*
X011289Y014768D01*
X011507Y014550D01*
X011609Y014448D01*
X011696Y014448D01*
X011737Y014406D01*
X011549Y014507D02*
X010257Y014507D01*
X010257Y014606D02*
X011451Y014606D01*
X011352Y014705D02*
X010257Y014705D01*
X010257Y014803D02*
X011145Y014803D01*
X011056Y014902D02*
X010257Y014902D01*
X010257Y015000D02*
X011027Y015000D01*
X011037Y015099D02*
X010257Y015099D01*
X010257Y015197D02*
X011096Y015197D01*
X011468Y015197D02*
X019557Y015197D01*
X019557Y015099D02*
X011526Y015099D01*
X011552Y015000D02*
X019557Y015000D01*
X019557Y014902D02*
X017442Y014902D01*
X017475Y014868D02*
X017403Y014941D01*
X017308Y014980D01*
X017206Y014980D01*
X017111Y014941D01*
X017105Y014935D01*
X017101Y014939D01*
X017008Y014977D01*
X016906Y014977D01*
X016812Y014939D01*
X016741Y014867D01*
X016702Y014773D01*
X016702Y014672D01*
X016741Y014578D01*
X016812Y014506D01*
X016906Y014468D01*
X017008Y014468D01*
X017101Y014506D01*
X017105Y014510D01*
X017111Y014504D01*
X017206Y014465D01*
X017308Y014465D01*
X017403Y014504D01*
X017475Y014577D01*
X017514Y014671D01*
X017514Y014774D01*
X017475Y014868D01*
X017502Y014803D02*
X019557Y014803D01*
X019557Y014705D02*
X017514Y014705D01*
X017487Y014606D02*
X019557Y014606D01*
X019557Y014507D02*
X017406Y014507D01*
X017108Y014507D02*
X017102Y014507D01*
X016811Y014507D02*
X012110Y014507D01*
X012137Y014606D02*
X016729Y014606D01*
X016702Y014705D02*
X012124Y014705D01*
X012062Y014803D02*
X016714Y014803D01*
X016775Y014902D02*
X011650Y014902D01*
X012029Y014409D02*
X019557Y014409D01*
X019557Y015296D02*
X010257Y015296D01*
X010257Y015394D02*
X019557Y015394D01*
X019557Y015493D02*
X010257Y015493D01*
X010257Y015591D02*
X019557Y015591D01*
X019557Y015690D02*
X019208Y015690D01*
X019401Y015789D02*
X019557Y015789D01*
X019557Y015887D02*
X019499Y015887D01*
X019554Y015986D02*
X019557Y015986D01*
X019546Y016478D02*
X019557Y016478D01*
X019553Y016577D02*
X019480Y016577D01*
X019526Y016675D02*
X019382Y016675D01*
X019485Y016774D02*
X013514Y016774D01*
X013475Y016868D01*
X013403Y016941D01*
X013308Y016980D01*
X013206Y016980D01*
X013111Y016941D01*
X013038Y016868D01*
X012999Y016774D01*
X012514Y016774D01*
X012475Y016868D01*
X012403Y016941D01*
X012308Y016980D01*
X012206Y016980D01*
X012111Y016941D01*
X012038Y016868D01*
X011999Y016774D01*
X010257Y016774D01*
X010257Y016872D02*
X012042Y016872D01*
X011999Y016774D02*
X011999Y016671D01*
X012002Y016665D01*
X011925Y016588D01*
X011923Y016592D01*
X011851Y016664D01*
X011758Y016702D01*
X011656Y016702D01*
X011562Y016664D01*
X011491Y016592D01*
X011483Y016574D01*
X011368Y016689D01*
X011166Y016772D01*
X010947Y016772D01*
X010745Y016689D01*
X010591Y016534D01*
X010507Y016332D01*
X010507Y016113D01*
X010591Y015911D01*
X010745Y015756D01*
X010947Y015673D01*
X011166Y015673D01*
X011368Y015756D01*
X011523Y015911D01*
X011607Y016113D01*
X011607Y016213D01*
X011656Y016193D01*
X011758Y016193D01*
X011851Y016231D01*
X011923Y016303D01*
X011925Y016308D01*
X012040Y016308D01*
X012200Y016467D01*
X012206Y016465D01*
X012308Y016465D01*
X012403Y016504D01*
X012475Y016577D01*
X012634Y016577D01*
X012641Y016592D02*
X012602Y016498D01*
X012602Y016397D01*
X012641Y016303D01*
X012712Y016231D01*
X012806Y016193D01*
X012908Y016193D01*
X013001Y016231D01*
X013073Y016303D01*
X013100Y016367D01*
X013122Y016389D01*
X013200Y016467D01*
X013206Y016465D01*
X013308Y016465D01*
X013403Y016504D01*
X013475Y016577D01*
X018633Y016577D01*
X018568Y016478D02*
X013340Y016478D01*
X013475Y016577D02*
X013514Y016671D01*
X013514Y016774D01*
X013514Y016675D02*
X018732Y016675D01*
X018527Y016380D02*
X013112Y016380D01*
X013051Y016281D02*
X018507Y016281D01*
X018507Y016183D02*
X011607Y016183D01*
X011595Y016084D02*
X018519Y016084D01*
X018560Y015986D02*
X011554Y015986D01*
X011499Y015887D02*
X018614Y015887D01*
X018713Y015789D02*
X011401Y015789D01*
X011208Y015690D02*
X018905Y015690D01*
X019413Y016872D02*
X013471Y016872D01*
X013330Y016971D02*
X019275Y016971D01*
X013184Y016971D02*
X012330Y016971D01*
X012184Y016971D02*
X010257Y016971D01*
X010257Y016675D02*
X010732Y016675D01*
X010633Y016577D02*
X010257Y016577D01*
X010257Y016478D02*
X010568Y016478D01*
X010527Y016380D02*
X010257Y016380D01*
X010257Y016281D02*
X010507Y016281D01*
X010507Y016183D02*
X010257Y016183D01*
X010257Y016084D02*
X010519Y016084D01*
X010560Y015986D02*
X010257Y015986D01*
X010257Y015887D02*
X010614Y015887D01*
X010713Y015789D02*
X010257Y015789D01*
X010257Y015690D02*
X010905Y015690D01*
X011901Y016281D02*
X012663Y016281D01*
X012609Y016380D02*
X012112Y016380D01*
X012340Y016478D02*
X012602Y016478D01*
X012641Y016592D02*
X012712Y016664D01*
X012806Y016702D01*
X012908Y016702D01*
X013000Y016664D01*
X013002Y016665D01*
X012999Y016671D01*
X012999Y016774D01*
X012999Y016675D02*
X012973Y016675D01*
X013042Y016872D02*
X012471Y016872D01*
X012514Y016774D02*
X012514Y016671D01*
X012475Y016577D01*
X012514Y016675D02*
X012741Y016675D01*
X011999Y016675D02*
X011823Y016675D01*
X011591Y016675D02*
X011382Y016675D01*
X011480Y016577D02*
X011484Y016577D01*
X010257Y012832D02*
X013023Y012832D01*
X012999Y012734D02*
X010257Y012734D01*
X010257Y012635D02*
X013014Y012635D01*
X013078Y012537D02*
X010257Y012537D01*
X010257Y012438D02*
X013132Y012438D01*
X013132Y012339D02*
X010257Y012339D01*
X010257Y012241D02*
X013132Y012241D01*
X013132Y012142D02*
X010257Y012142D01*
X010257Y012044D02*
X013132Y012044D01*
X013132Y011945D02*
X010257Y011945D01*
X010257Y011847D02*
X013132Y011847D01*
X013132Y011748D02*
X010257Y011748D01*
X010257Y011650D02*
X013132Y011650D01*
X013132Y011551D02*
X010257Y011551D01*
X010257Y011453D02*
X013132Y011453D01*
X013132Y011354D02*
X010257Y011354D01*
X010257Y011256D02*
X013132Y011256D01*
X013132Y011157D02*
X010257Y011157D01*
X010257Y011058D02*
X013223Y011058D01*
X014682Y010960D02*
X010257Y010960D01*
X010257Y010861D02*
X014682Y010861D01*
X014682Y010763D02*
X010257Y010763D01*
X010257Y010664D02*
X014682Y010664D01*
X014682Y010566D02*
X010257Y010566D01*
X010257Y010467D02*
X014682Y010467D01*
X014682Y010369D02*
X010257Y010369D01*
X010257Y010270D02*
X014682Y010270D01*
X014682Y010172D02*
X010257Y010172D01*
X010257Y010073D02*
X014682Y010073D01*
X014682Y009974D02*
X010257Y009974D01*
X010257Y009876D02*
X014682Y009876D01*
X014682Y009777D02*
X010257Y009777D01*
X010257Y009679D02*
X014682Y009679D01*
X014752Y009580D02*
X010257Y009580D01*
X010257Y009482D02*
X011705Y009482D01*
X011712Y009489D02*
X011671Y009447D01*
X011584Y009447D01*
X011482Y009345D01*
X011264Y009127D01*
X011206Y009127D01*
X011112Y009089D01*
X011041Y009017D01*
X011002Y008923D01*
X011002Y008822D01*
X011041Y008728D01*
X011112Y008656D01*
X011206Y008618D01*
X011308Y008618D01*
X011401Y008656D01*
X011473Y008728D01*
X011512Y008822D01*
X011512Y008880D01*
X011700Y009069D01*
X011712Y009056D01*
X011806Y009018D01*
X011908Y009018D01*
X012001Y009056D01*
X012073Y009128D01*
X012112Y009222D01*
X012112Y009323D01*
X012073Y009417D01*
X012001Y009489D01*
X011908Y009527D01*
X011806Y009527D01*
X011712Y009489D01*
X011520Y009383D02*
X010257Y009383D01*
X010257Y009285D02*
X011421Y009285D01*
X011323Y009186D02*
X010257Y009186D01*
X010257Y009088D02*
X011111Y009088D01*
X011029Y008989D02*
X010257Y008989D01*
X010257Y008890D02*
X011002Y008890D01*
X011014Y008792D02*
X010257Y008792D01*
X010257Y008693D02*
X011075Y008693D01*
X011438Y008693D02*
X012999Y008693D01*
X012999Y008671D02*
X013038Y008577D01*
X013111Y008504D01*
X013206Y008465D01*
X013308Y008465D01*
X013403Y008504D01*
X013416Y008518D01*
X013508Y008518D01*
X013601Y008556D01*
X013673Y008628D01*
X013712Y008722D01*
X013712Y008823D01*
X013673Y008917D01*
X013601Y008989D01*
X013508Y009027D01*
X013406Y009027D01*
X013312Y008989D01*
X013304Y008980D01*
X013206Y008980D01*
X013111Y008941D01*
X013038Y008868D01*
X012999Y008774D01*
X012999Y008671D01*
X013031Y008595D02*
X010257Y008595D01*
X010257Y008496D02*
X013130Y008496D01*
X013384Y008496D02*
X014982Y008496D01*
X014982Y008398D02*
X010257Y008398D01*
X010257Y008299D02*
X014982Y008299D01*
X014982Y008201D02*
X011340Y008201D01*
X011368Y008189D02*
X011166Y008272D01*
X010947Y008272D01*
X010745Y008189D01*
X010591Y008034D01*
X010507Y007832D01*
X010507Y007613D01*
X010591Y007411D01*
X010745Y007256D01*
X010947Y007173D01*
X011166Y007173D01*
X011368Y007256D01*
X011523Y007411D01*
X011607Y007613D01*
X011607Y007832D01*
X011523Y008034D01*
X011368Y008189D01*
X011455Y008102D02*
X014982Y008102D01*
X014982Y008004D02*
X011536Y008004D01*
X011577Y007905D02*
X014982Y007905D01*
X014982Y007806D02*
X011607Y007806D01*
X011607Y007708D02*
X014982Y007708D01*
X014982Y007609D02*
X011605Y007609D01*
X011564Y007511D02*
X014982Y007511D01*
X015020Y007412D02*
X011524Y007412D01*
X011426Y007314D02*
X018688Y007314D01*
X018590Y007412D02*
X015994Y007412D01*
X016032Y007511D02*
X018549Y007511D01*
X018508Y007609D02*
X016032Y007609D01*
X016032Y007708D02*
X018507Y007708D01*
X018507Y007806D02*
X016032Y007806D01*
X016032Y007905D02*
X018537Y007905D01*
X018578Y008004D02*
X016032Y008004D01*
X016032Y008102D02*
X018659Y008102D01*
X018774Y008201D02*
X016032Y008201D01*
X016032Y008299D02*
X019557Y008299D01*
X019557Y008201D02*
X019340Y008201D01*
X019455Y008102D02*
X019557Y008102D01*
X019557Y008004D02*
X019536Y008004D01*
X019557Y008398D02*
X016032Y008398D01*
X016032Y008496D02*
X019557Y008496D01*
X019557Y008595D02*
X016032Y008595D01*
X016032Y008693D02*
X019557Y008693D01*
X019557Y008792D02*
X016032Y008792D01*
X016032Y008890D02*
X019557Y008890D01*
X019557Y008989D02*
X016032Y008989D01*
X016032Y009088D02*
X019557Y009088D01*
X019557Y009186D02*
X016032Y009186D01*
X016032Y009285D02*
X017565Y009285D01*
X017606Y009268D02*
X017512Y009306D01*
X017441Y009378D01*
X017402Y009472D01*
X017402Y009504D01*
X017308Y009465D01*
X017206Y009465D01*
X017111Y009504D01*
X017038Y009577D01*
X016999Y009671D01*
X016999Y009774D01*
X017038Y009868D01*
X017111Y009941D01*
X017206Y009980D01*
X017308Y009980D01*
X017403Y009941D01*
X017475Y009868D01*
X017478Y009862D01*
X017515Y009862D01*
X017602Y009776D01*
X017606Y009777D01*
X017600Y009777D01*
X017606Y009777D02*
X017708Y009777D01*
X019557Y009777D01*
X019557Y009679D02*
X017861Y009679D01*
X017873Y009667D02*
X017801Y009739D01*
X017708Y009777D01*
X017873Y009667D02*
X017912Y009573D01*
X017912Y009472D01*
X017873Y009378D01*
X017801Y009306D01*
X017708Y009268D01*
X017606Y009268D01*
X017749Y009285D02*
X019557Y009285D01*
X019557Y009383D02*
X017875Y009383D01*
X017912Y009482D02*
X019557Y009482D01*
X019557Y009580D02*
X017909Y009580D01*
X017439Y009383D02*
X016032Y009383D01*
X016032Y009482D02*
X017165Y009482D01*
X017037Y009580D02*
X015947Y009580D01*
X015848Y009679D02*
X016999Y009679D01*
X017001Y009777D02*
X015749Y009777D01*
X015651Y009876D02*
X017046Y009876D01*
X017192Y009974D02*
X015552Y009974D01*
X015454Y010073D02*
X019557Y010073D01*
X019557Y009974D02*
X017322Y009974D01*
X017468Y009876D02*
X019557Y009876D01*
X019557Y010172D02*
X015432Y010172D01*
X015432Y010270D02*
X019018Y010270D01*
X019496Y010270D02*
X019557Y010270D01*
X018807Y010763D02*
X017558Y010763D01*
X017607Y010861D02*
X018808Y010861D01*
X018818Y010960D02*
X017612Y010960D01*
X017577Y011058D02*
X018869Y011058D01*
X019022Y011157D02*
X017457Y011157D01*
X017402Y009482D02*
X017349Y009482D01*
X019492Y011157D02*
X019557Y011157D01*
X019524Y007412D02*
X019556Y007412D01*
X019541Y007314D02*
X019426Y007314D01*
X019509Y007215D02*
X019269Y007215D01*
X019445Y007117D02*
X010257Y007117D01*
X010257Y007215D02*
X010844Y007215D01*
X010688Y007314D02*
X010257Y007314D01*
X010257Y007412D02*
X010590Y007412D01*
X010549Y007511D02*
X010257Y007511D01*
X010257Y007609D02*
X010508Y007609D01*
X010507Y007708D02*
X010257Y007708D01*
X010257Y007806D02*
X010507Y007806D01*
X010537Y007905D02*
X010257Y007905D01*
X010257Y008004D02*
X010578Y008004D01*
X010659Y008102D02*
X010257Y008102D01*
X010257Y008201D02*
X010774Y008201D01*
X011499Y008792D02*
X013007Y008792D01*
X013060Y008890D02*
X011522Y008890D01*
X011621Y008989D02*
X013313Y008989D01*
X013600Y008989D02*
X014982Y008989D01*
X014982Y009088D02*
X012032Y009088D01*
X012097Y009186D02*
X014982Y009186D01*
X014982Y009285D02*
X012112Y009285D01*
X012087Y009383D02*
X014949Y009383D01*
X014850Y009482D02*
X012008Y009482D01*
X013684Y008890D02*
X014982Y008890D01*
X014982Y008792D02*
X013712Y008792D01*
X013700Y008693D02*
X014982Y008693D01*
X014982Y008595D02*
X013640Y008595D01*
X011269Y007215D02*
X018844Y007215D01*
X019341Y007018D02*
X010257Y007018D01*
D15*
X011257Y008873D03*
X011857Y009273D03*
X012982Y009173D03*
X013457Y008773D03*
X013932Y008798D03*
X014807Y009248D03*
X015357Y008623D03*
X015657Y008623D03*
X015657Y008223D03*
X015357Y008223D03*
X015357Y007823D03*
X015657Y007823D03*
X014757Y007273D03*
X014457Y007273D03*
X017107Y007298D03*
X017107Y007598D03*
X018482Y008323D03*
X018807Y008598D03*
X017657Y009523D03*
X017357Y010923D03*
X015657Y010698D03*
X015257Y011423D03*
X014957Y011423D03*
X014657Y011423D03*
X014657Y012498D03*
X014957Y012498D03*
X015257Y012498D03*
X014657Y013298D03*
X015907Y013298D03*
X016907Y013298D03*
X016957Y014723D03*
X015857Y014773D03*
X013882Y014773D03*
X013357Y015098D03*
X012507Y015473D03*
X012882Y016023D03*
X012857Y016448D03*
X011707Y016448D03*
X011282Y015023D03*
X011882Y014623D03*
X010382Y014173D03*
X012907Y013298D03*
X013457Y012273D03*
X013457Y011973D03*
X013457Y011673D03*
X012407Y010698D03*
X011607Y011098D03*
X010382Y009773D03*
X014807Y016398D03*
X018907Y013998D03*
D16*
X015457Y012723D02*
X015457Y011223D01*
X015257Y011223D01*
X015257Y010023D01*
X015857Y009423D01*
X015857Y007523D01*
X015157Y007523D01*
X015157Y009423D01*
X014857Y009723D01*
X014857Y011223D01*
X013307Y011223D01*
X013307Y012723D01*
X015457Y012723D01*
X015457Y012636D02*
X013307Y012636D01*
X013307Y012507D02*
X015457Y012507D01*
X015457Y012378D02*
X013307Y012378D01*
X013307Y012250D02*
X015457Y012250D01*
X015457Y012121D02*
X013307Y012121D01*
X013307Y011993D02*
X015457Y011993D01*
X015457Y011864D02*
X013307Y011864D01*
X013307Y011736D02*
X015457Y011736D01*
X015457Y011607D02*
X013307Y011607D01*
X013307Y011479D02*
X015457Y011479D01*
X015457Y011350D02*
X013307Y011350D01*
X014857Y011222D02*
X015257Y011222D01*
X015257Y011093D02*
X014857Y011093D01*
X014857Y010964D02*
X015257Y010964D01*
X015257Y010836D02*
X014857Y010836D01*
X014857Y010707D02*
X015257Y010707D01*
X015257Y010579D02*
X014857Y010579D01*
X014857Y010450D02*
X015257Y010450D01*
X015257Y010322D02*
X014857Y010322D01*
X014857Y010193D02*
X015257Y010193D01*
X015257Y010065D02*
X014857Y010065D01*
X014857Y009936D02*
X015343Y009936D01*
X015472Y009808D02*
X014857Y009808D01*
X014900Y009679D02*
X015600Y009679D01*
X015729Y009550D02*
X015029Y009550D01*
X015157Y009422D02*
X015857Y009422D01*
X015857Y009293D02*
X015157Y009293D01*
X015157Y009165D02*
X015857Y009165D01*
X015857Y009036D02*
X015157Y009036D01*
X015157Y008908D02*
X015857Y008908D01*
X015857Y008779D02*
X015157Y008779D01*
X015157Y008651D02*
X015857Y008651D01*
X015857Y008522D02*
X015157Y008522D01*
X015157Y008394D02*
X015857Y008394D01*
X015857Y008265D02*
X015157Y008265D01*
X015157Y008136D02*
X015857Y008136D01*
X015857Y008008D02*
X015157Y008008D01*
X015157Y007879D02*
X015857Y007879D01*
X015857Y007751D02*
X015157Y007751D01*
X015157Y007622D02*
X015857Y007622D01*
X011857Y009273D02*
X011657Y009273D01*
X011257Y008873D01*
X010357Y007523D02*
X009307Y007523D01*
X009257Y007473D01*
X011682Y014623D02*
X011882Y014623D01*
X011682Y014623D02*
X011282Y015023D01*
X010357Y016423D02*
X009307Y016423D01*
X009257Y016473D01*
D17*
X011707Y016448D02*
X011982Y016448D01*
X012257Y016723D01*
X012857Y016448D02*
X012982Y016448D01*
X013257Y016723D01*
X016957Y014723D02*
X017257Y014723D01*
X017357Y010923D02*
X017257Y010823D01*
X017257Y010723D01*
X017257Y009723D02*
X017457Y009723D01*
X017657Y009523D01*
X013457Y008773D02*
X013407Y008723D01*
X013257Y008723D01*
M02*
