%
M48
M72
T01C0.0130
T02C0.0354
T03C0.0453
T04C0.0700
%
T01
X11257Y8873
X11857Y9273
X12982Y9173
X13457Y8773
X13932Y8798
X14807Y9248
X15357Y8623
X15657Y8623
X15657Y8223
X15357Y8223
X15357Y7823
X15657Y7823
X14757Y7273
X14457Y7273
X17107Y7298
X17107Y7598
X18482Y8323
X18807Y8598
X17657Y9523
X17357Y10923
X15657Y10698
X15257Y11423
X14957Y11423
X14657Y11423
X14657Y12498
X14957Y12498
X15257Y12498
X14657Y13298
X15907Y13298
X16907Y13298
X16957Y14723
X15857Y14773
X13882Y14773
X13357Y15098
X12507Y15473
X12882Y16023
X12857Y16448
X11707Y16448
X11282Y15023
X11882Y14623
X10382Y14173
X12907Y13298
X13457Y12273
X13457Y11973
X13457Y11673
X12407Y10698
X11607Y11098
X10382Y9773
X14807Y16398
X18907Y13998
T02
X9257Y7473
X9257Y8473
X9257Y9473
X9257Y10473
X9257Y11473
X9257Y12473
X9257Y13473
X9257Y14473
X9257Y15473
X9257Y16473
T03
X19257Y13232
X19257Y10713
T04
X19057Y7723
X11057Y7723
X11057Y16223
X19057Y16223
M30
