G75*
G70*
%OFA0B0*%
%FSLAX24Y24*%
%IPPOS*%
%LPD*%
%AMOC8*
5,1,8,0,0,1.08239X$1,22.5*
%
%ADD10C,0.0780*%
%ADD11C,0.0100*%
%ADD12C,0.0759*%
%ADD13C,0.0379*%
%ADD14C,0.0375*%
D10*
X009257Y007473D03*
X009257Y008473D03*
X009257Y009473D03*
X009257Y010473D03*
X009257Y011473D03*
X009257Y012473D03*
X009257Y013473D03*
X009257Y014473D03*
X009257Y015473D03*
X009257Y016473D03*
X011057Y016223D03*
X019057Y016223D03*
X019057Y007723D03*
X011057Y007723D03*
D11*
X013122Y008657D02*
X013140Y008629D01*
X013163Y008605D01*
X013192Y008587D01*
X013223Y008576D01*
X013257Y008573D01*
X013290Y008576D01*
X013322Y008587D01*
X013350Y008605D01*
X013374Y008629D01*
X013392Y008657D01*
X013403Y008689D01*
X013407Y008723D01*
X013403Y008756D01*
X013392Y008788D01*
X013374Y008816D01*
X013350Y008840D01*
X013322Y008858D01*
X013290Y008869D01*
X013257Y008873D01*
X013223Y008869D01*
X013192Y008858D01*
X013163Y008840D01*
X013140Y008816D01*
X013122Y008788D01*
X013111Y008756D01*
X013107Y008723D01*
X013111Y008689D01*
X013122Y008657D01*
X013110Y008693D02*
X013404Y008693D01*
X013389Y008792D02*
X013124Y008792D01*
X013180Y008595D02*
X013334Y008595D01*
X013257Y010573D02*
X013290Y010576D01*
X013322Y010587D01*
X013350Y010605D01*
X013374Y010629D01*
X013392Y010657D01*
X013403Y010689D01*
X013407Y010723D01*
X013403Y010756D01*
X013392Y010788D01*
X013374Y010816D01*
X013350Y010840D01*
X013322Y010858D01*
X013290Y010869D01*
X013257Y010873D01*
X013223Y010869D01*
X013192Y010858D01*
X013163Y010840D01*
X013140Y010816D01*
X013122Y010788D01*
X013111Y010756D01*
X013107Y010723D01*
X013111Y010689D01*
X013122Y010657D01*
X013140Y010629D01*
X013163Y010605D01*
X013192Y010587D01*
X013223Y010576D01*
X013257Y010573D01*
X013394Y010664D02*
X013119Y010664D01*
X013113Y010763D02*
X013401Y010763D01*
X013311Y010861D02*
X013202Y010861D01*
X013257Y012573D02*
X013290Y012576D01*
X013322Y012587D01*
X013350Y012605D01*
X013374Y012629D01*
X013392Y012657D01*
X013403Y012689D01*
X013407Y012723D01*
X013403Y012756D01*
X013392Y012788D01*
X013374Y012816D01*
X013350Y012840D01*
X013322Y012858D01*
X013290Y012869D01*
X013257Y012873D01*
X013223Y012869D01*
X013192Y012858D01*
X013163Y012840D01*
X013140Y012816D01*
X013122Y012788D01*
X013111Y012756D01*
X013107Y012723D01*
X013111Y012689D01*
X013122Y012657D01*
X013140Y012629D01*
X013163Y012605D01*
X013192Y012587D01*
X013223Y012576D01*
X013257Y012573D01*
X013136Y012635D02*
X013378Y012635D01*
X013406Y012734D02*
X013108Y012734D01*
X013156Y012832D02*
X013358Y012832D01*
X017122Y014657D02*
X017140Y014629D01*
X017163Y014605D01*
X017192Y014587D01*
X017223Y014576D01*
X017257Y014573D01*
X017290Y014576D01*
X017322Y014587D01*
X017350Y014605D01*
X017374Y014629D01*
X017392Y014657D01*
X017403Y014689D01*
X017407Y014723D01*
X017403Y014756D01*
X017392Y014788D01*
X017374Y014816D01*
X017350Y014840D01*
X017322Y014858D01*
X017290Y014869D01*
X017257Y014873D01*
X017223Y014869D01*
X017192Y014858D01*
X017163Y014840D01*
X017140Y014816D01*
X017122Y014788D01*
X017111Y014756D01*
X017107Y014723D01*
X017111Y014689D01*
X017122Y014657D01*
X017109Y014705D02*
X017405Y014705D01*
X017382Y014803D02*
X017131Y014803D01*
X017163Y014606D02*
X017351Y014606D01*
X013392Y016657D02*
X013403Y016689D01*
X013407Y016723D01*
X013403Y016756D01*
X013392Y016788D01*
X013374Y016816D01*
X013350Y016840D01*
X013322Y016858D01*
X013290Y016869D01*
X013257Y016873D01*
X013223Y016869D01*
X013192Y016858D01*
X013163Y016840D01*
X013140Y016816D01*
X013122Y016788D01*
X013111Y016756D01*
X013107Y016723D01*
X013111Y016689D01*
X013122Y016657D01*
X013140Y016629D01*
X013163Y016605D01*
X013192Y016587D01*
X013223Y016576D01*
X013257Y016573D01*
X013290Y016576D01*
X013322Y016587D01*
X013350Y016605D01*
X013374Y016629D01*
X013392Y016657D01*
X013398Y016675D02*
X013115Y016675D01*
X013117Y016774D02*
X013397Y016774D01*
X013257Y016872D02*
X013257Y016872D01*
X013222Y016577D02*
X013292Y016577D01*
X012403Y016689D02*
X012407Y016723D01*
X012403Y016756D01*
X012392Y016788D01*
X012374Y016816D01*
X012350Y016840D01*
X012322Y016858D01*
X012290Y016869D01*
X012257Y016873D01*
X012223Y016869D01*
X012192Y016858D01*
X012163Y016840D01*
X012140Y016816D01*
X012122Y016788D01*
X012111Y016756D01*
X012107Y016723D01*
X012111Y016689D01*
X012122Y016657D01*
X012140Y016629D01*
X012163Y016605D01*
X012192Y016587D01*
X012223Y016576D01*
X012257Y016573D01*
X012290Y016576D01*
X012322Y016587D01*
X012350Y016605D01*
X012374Y016629D01*
X012392Y016657D01*
X012403Y016689D01*
X012398Y016675D02*
X012115Y016675D01*
X012117Y016774D02*
X012397Y016774D01*
X012257Y016872D02*
X012257Y016872D01*
X012222Y016577D02*
X012292Y016577D01*
X017163Y010840D02*
X017192Y010858D01*
X017223Y010869D01*
X017257Y010873D01*
X017290Y010869D01*
X017322Y010858D01*
X017350Y010840D01*
X017374Y010816D01*
X017392Y010788D01*
X017403Y010756D01*
X017407Y010723D01*
X017403Y010689D01*
X017392Y010657D01*
X017374Y010629D01*
X017350Y010605D01*
X017322Y010587D01*
X017290Y010576D01*
X017257Y010573D01*
X017223Y010576D01*
X017192Y010587D01*
X017163Y010605D01*
X017140Y010629D01*
X017122Y010657D01*
X017111Y010689D01*
X017107Y010723D01*
X017111Y010756D01*
X017122Y010788D01*
X017140Y010816D01*
X017163Y010840D01*
X017202Y010861D02*
X017311Y010861D01*
X017401Y010763D02*
X017113Y010763D01*
X017119Y010664D02*
X017394Y010664D01*
X017290Y009869D02*
X017257Y009873D01*
X017223Y009869D01*
X017192Y009858D01*
X017163Y009840D01*
X017140Y009816D01*
X017122Y009788D01*
X017111Y009756D01*
X017107Y009723D01*
X017111Y009689D01*
X017122Y009657D01*
X017140Y009629D01*
X017163Y009605D01*
X017192Y009587D01*
X017223Y009576D01*
X017257Y009573D01*
X017290Y009576D01*
X017322Y009587D01*
X017350Y009605D01*
X017374Y009629D01*
X017392Y009657D01*
X017403Y009689D01*
X017407Y009723D01*
X017403Y009756D01*
X017392Y009788D01*
X017374Y009816D01*
X017350Y009840D01*
X017322Y009858D01*
X017290Y009869D01*
X017396Y009777D02*
X017118Y009777D01*
X017114Y009679D02*
X017399Y009679D01*
X017302Y009580D02*
X017212Y009580D01*
D12*
X019257Y010713D03*
X019257Y013232D03*
D13*
X019068Y013043D02*
X019068Y013421D01*
X019446Y013421D01*
X019446Y013043D01*
X019068Y013043D01*
X019068Y013421D02*
X019446Y013421D01*
X019068Y010902D02*
X019068Y010524D01*
X019068Y010902D02*
X019446Y010902D01*
X019446Y010524D01*
X019068Y010524D01*
X019068Y010902D02*
X019446Y010902D01*
D14*
X017257Y010723D03*
X017257Y009723D03*
X013257Y010723D03*
X013257Y012723D03*
X017257Y014723D03*
X013257Y016723D03*
X012257Y016723D03*
X013257Y008723D03*
M02*
