G75*
G70*
%OFA0B0*%
%FSLAX24Y24*%
%IPPOS*%
%LPD*%
%AMOC8*
5,1,8,0,0,1.08239X$1,22.5*
%
%ADD10C,0.0000*%
D10*
X009357Y006723D02*
X019057Y006723D01*
X019107Y006725D01*
X019157Y006730D01*
X019206Y006739D01*
X019254Y006751D01*
X019302Y006767D01*
X019348Y006786D01*
X019392Y006809D01*
X019435Y006834D01*
X019476Y006863D01*
X019515Y006894D01*
X019552Y006928D01*
X019586Y006965D01*
X019617Y007004D01*
X019646Y007045D01*
X019671Y007088D01*
X019694Y007132D01*
X019713Y007178D01*
X019729Y007226D01*
X019741Y007274D01*
X019750Y007323D01*
X019755Y007373D01*
X019757Y007423D01*
X019757Y016523D01*
X019755Y016573D01*
X019750Y016623D01*
X019741Y016672D01*
X019729Y016720D01*
X019713Y016768D01*
X019694Y016814D01*
X019671Y016858D01*
X019646Y016901D01*
X019617Y016942D01*
X019586Y016981D01*
X019552Y017018D01*
X019515Y017052D01*
X019476Y017083D01*
X019435Y017112D01*
X019392Y017137D01*
X019348Y017160D01*
X019302Y017179D01*
X019254Y017195D01*
X019206Y017207D01*
X019157Y017216D01*
X019107Y017221D01*
X019057Y017223D01*
X009357Y017223D01*
X009307Y017221D01*
X009257Y017216D01*
X009208Y017207D01*
X009160Y017195D01*
X009112Y017179D01*
X009066Y017160D01*
X009022Y017137D01*
X008979Y017112D01*
X008938Y017083D01*
X008899Y017052D01*
X008862Y017018D01*
X008828Y016981D01*
X008797Y016942D01*
X008768Y016901D01*
X008743Y016858D01*
X008720Y016814D01*
X008701Y016768D01*
X008685Y016720D01*
X008673Y016672D01*
X008664Y016623D01*
X008659Y016573D01*
X008657Y016523D01*
X008657Y007423D01*
X008659Y007373D01*
X008664Y007323D01*
X008673Y007274D01*
X008685Y007226D01*
X008701Y007178D01*
X008720Y007132D01*
X008743Y007088D01*
X008768Y007045D01*
X008797Y007004D01*
X008828Y006965D01*
X008862Y006928D01*
X008899Y006894D01*
X008938Y006863D01*
X008979Y006834D01*
X009022Y006809D01*
X009066Y006786D01*
X009112Y006767D01*
X009160Y006751D01*
X009208Y006739D01*
X009257Y006730D01*
X009307Y006725D01*
X009357Y006723D01*
X010707Y007723D02*
X010709Y007760D01*
X010715Y007797D01*
X010725Y007833D01*
X010738Y007868D01*
X010755Y007901D01*
X010776Y007932D01*
X010800Y007960D01*
X010827Y007986D01*
X010856Y008009D01*
X010887Y008029D01*
X010921Y008045D01*
X010956Y008058D01*
X010992Y008067D01*
X011029Y008072D01*
X011066Y008073D01*
X011103Y008070D01*
X011140Y008063D01*
X011176Y008052D01*
X011210Y008038D01*
X011243Y008020D01*
X011273Y007998D01*
X011301Y007974D01*
X011326Y007946D01*
X011349Y007916D01*
X011368Y007884D01*
X011383Y007850D01*
X011395Y007815D01*
X011403Y007779D01*
X011407Y007742D01*
X011407Y007704D01*
X011403Y007667D01*
X011395Y007631D01*
X011383Y007596D01*
X011368Y007562D01*
X011349Y007530D01*
X011326Y007500D01*
X011301Y007472D01*
X011273Y007448D01*
X011243Y007426D01*
X011210Y007408D01*
X011176Y007394D01*
X011140Y007383D01*
X011103Y007376D01*
X011066Y007373D01*
X011029Y007374D01*
X010992Y007379D01*
X010956Y007388D01*
X010921Y007401D01*
X010887Y007417D01*
X010856Y007437D01*
X010827Y007460D01*
X010800Y007486D01*
X010776Y007514D01*
X010755Y007545D01*
X010738Y007578D01*
X010725Y007613D01*
X010715Y007649D01*
X010709Y007686D01*
X010707Y007723D01*
X018707Y007723D02*
X018709Y007760D01*
X018715Y007797D01*
X018725Y007833D01*
X018738Y007868D01*
X018755Y007901D01*
X018776Y007932D01*
X018800Y007960D01*
X018827Y007986D01*
X018856Y008009D01*
X018887Y008029D01*
X018921Y008045D01*
X018956Y008058D01*
X018992Y008067D01*
X019029Y008072D01*
X019066Y008073D01*
X019103Y008070D01*
X019140Y008063D01*
X019176Y008052D01*
X019210Y008038D01*
X019243Y008020D01*
X019273Y007998D01*
X019301Y007974D01*
X019326Y007946D01*
X019349Y007916D01*
X019368Y007884D01*
X019383Y007850D01*
X019395Y007815D01*
X019403Y007779D01*
X019407Y007742D01*
X019407Y007704D01*
X019403Y007667D01*
X019395Y007631D01*
X019383Y007596D01*
X019368Y007562D01*
X019349Y007530D01*
X019326Y007500D01*
X019301Y007472D01*
X019273Y007448D01*
X019243Y007426D01*
X019210Y007408D01*
X019176Y007394D01*
X019140Y007383D01*
X019103Y007376D01*
X019066Y007373D01*
X019029Y007374D01*
X018992Y007379D01*
X018956Y007388D01*
X018921Y007401D01*
X018887Y007417D01*
X018856Y007437D01*
X018827Y007460D01*
X018800Y007486D01*
X018776Y007514D01*
X018755Y007545D01*
X018738Y007578D01*
X018725Y007613D01*
X018715Y007649D01*
X018709Y007686D01*
X018707Y007723D01*
X018707Y016223D02*
X018709Y016260D01*
X018715Y016297D01*
X018725Y016333D01*
X018738Y016368D01*
X018755Y016401D01*
X018776Y016432D01*
X018800Y016460D01*
X018827Y016486D01*
X018856Y016509D01*
X018887Y016529D01*
X018921Y016545D01*
X018956Y016558D01*
X018992Y016567D01*
X019029Y016572D01*
X019066Y016573D01*
X019103Y016570D01*
X019140Y016563D01*
X019176Y016552D01*
X019210Y016538D01*
X019243Y016520D01*
X019273Y016498D01*
X019301Y016474D01*
X019326Y016446D01*
X019349Y016416D01*
X019368Y016384D01*
X019383Y016350D01*
X019395Y016315D01*
X019403Y016279D01*
X019407Y016242D01*
X019407Y016204D01*
X019403Y016167D01*
X019395Y016131D01*
X019383Y016096D01*
X019368Y016062D01*
X019349Y016030D01*
X019326Y016000D01*
X019301Y015972D01*
X019273Y015948D01*
X019243Y015926D01*
X019210Y015908D01*
X019176Y015894D01*
X019140Y015883D01*
X019103Y015876D01*
X019066Y015873D01*
X019029Y015874D01*
X018992Y015879D01*
X018956Y015888D01*
X018921Y015901D01*
X018887Y015917D01*
X018856Y015937D01*
X018827Y015960D01*
X018800Y015986D01*
X018776Y016014D01*
X018755Y016045D01*
X018738Y016078D01*
X018725Y016113D01*
X018715Y016149D01*
X018709Y016186D01*
X018707Y016223D01*
X010707Y016223D02*
X010709Y016260D01*
X010715Y016297D01*
X010725Y016333D01*
X010738Y016368D01*
X010755Y016401D01*
X010776Y016432D01*
X010800Y016460D01*
X010827Y016486D01*
X010856Y016509D01*
X010887Y016529D01*
X010921Y016545D01*
X010956Y016558D01*
X010992Y016567D01*
X011029Y016572D01*
X011066Y016573D01*
X011103Y016570D01*
X011140Y016563D01*
X011176Y016552D01*
X011210Y016538D01*
X011243Y016520D01*
X011273Y016498D01*
X011301Y016474D01*
X011326Y016446D01*
X011349Y016416D01*
X011368Y016384D01*
X011383Y016350D01*
X011395Y016315D01*
X011403Y016279D01*
X011407Y016242D01*
X011407Y016204D01*
X011403Y016167D01*
X011395Y016131D01*
X011383Y016096D01*
X011368Y016062D01*
X011349Y016030D01*
X011326Y016000D01*
X011301Y015972D01*
X011273Y015948D01*
X011243Y015926D01*
X011210Y015908D01*
X011176Y015894D01*
X011140Y015883D01*
X011103Y015876D01*
X011066Y015873D01*
X011029Y015874D01*
X010992Y015879D01*
X010956Y015888D01*
X010921Y015901D01*
X010887Y015917D01*
X010856Y015937D01*
X010827Y015960D01*
X010800Y015986D01*
X010776Y016014D01*
X010755Y016045D01*
X010738Y016078D01*
X010725Y016113D01*
X010715Y016149D01*
X010709Y016186D01*
X010707Y016223D01*
M02*
