G75*
G70*
%OFA0B0*%
%FSLAX24Y24*%
%IPPOS*%
%LPD*%
%AMOC8*
5,1,8,0,0,1.08239X$1,22.5*
%
%ADD10C,0.0125*%
%ADD11C,0.0173*%
%ADD12C,0.0295*%
%ADD13C,0.0315*%
%ADD14C,0.0256*%
%ADD15C,0.0679*%
%ADD16C,0.0700*%
%ADD17C,0.0199*%
%ADD18C,0.0198*%
%ADD19C,0.0202*%
%ADD20C,0.0197*%
%ADD21C,0.0201*%
%ADD22C,0.0157*%
%ADD23C,0.0080*%
%ADD24C,0.0201*%
%ADD25C,0.0202*%
%ADD26C,0.0060*%
%ADD27C,0.0290*%
%ADD28C,0.0130*%
%ADD29C,0.0100*%
%ADD30C,0.0160*%
%ADD31C,0.0120*%
D10*
X010782Y009885D02*
X010782Y010261D01*
X010782Y009885D02*
X010782Y009885D01*
X010782Y010261D01*
X010782Y010261D01*
X010782Y010009D02*
X010782Y010009D01*
X010782Y010133D02*
X010782Y010133D01*
X010782Y010257D02*
X010782Y010257D01*
X011032Y010261D02*
X011032Y009885D01*
X011032Y009885D01*
X011032Y010261D01*
X011032Y010261D01*
X011032Y010009D02*
X011032Y010009D01*
X011032Y010133D02*
X011032Y010133D01*
X011032Y010257D02*
X011032Y010257D01*
X011282Y010261D02*
X011282Y009885D01*
X011282Y009885D01*
X011282Y010261D01*
X011282Y010261D01*
X011282Y010009D02*
X011282Y010009D01*
X011282Y010133D02*
X011282Y010133D01*
X011282Y010257D02*
X011282Y010257D01*
X011532Y010261D02*
X011532Y009885D01*
X011532Y009885D01*
X011532Y010261D01*
X011532Y010261D01*
X011532Y010009D02*
X011532Y010009D01*
X011532Y010133D02*
X011532Y010133D01*
X011532Y010257D02*
X011532Y010257D01*
X011782Y010261D02*
X011782Y009885D01*
X011782Y009885D01*
X011782Y010261D01*
X011782Y010261D01*
X011782Y010009D02*
X011782Y010009D01*
X011782Y010133D02*
X011782Y010133D01*
X011782Y010257D02*
X011782Y010257D01*
X012032Y010261D02*
X012032Y009885D01*
X012032Y009885D01*
X012032Y010261D01*
X012032Y010261D01*
X012032Y010009D02*
X012032Y010009D01*
X012032Y010133D02*
X012032Y010133D01*
X012032Y010257D02*
X012032Y010257D01*
X012282Y010261D02*
X012282Y009885D01*
X012282Y009885D01*
X012282Y010261D01*
X012282Y010261D01*
X012282Y010009D02*
X012282Y010009D01*
X012282Y010133D02*
X012282Y010133D01*
X012282Y010257D02*
X012282Y010257D01*
X012532Y010261D02*
X012532Y009885D01*
X012532Y009885D01*
X012532Y010261D01*
X012532Y010261D01*
X012532Y010009D02*
X012532Y010009D01*
X012532Y010133D02*
X012532Y010133D01*
X012532Y010257D02*
X012532Y010257D01*
X012782Y010261D02*
X012782Y009885D01*
X012782Y009885D01*
X012782Y010261D01*
X012782Y010261D01*
X012782Y010009D02*
X012782Y010009D01*
X012782Y010133D02*
X012782Y010133D01*
X012782Y010257D02*
X012782Y010257D01*
X013032Y010261D02*
X013032Y009885D01*
X013032Y009885D01*
X013032Y010261D01*
X013032Y010261D01*
X013032Y010009D02*
X013032Y010009D01*
X013032Y010133D02*
X013032Y010133D01*
X013032Y010257D02*
X013032Y010257D01*
X013282Y010261D02*
X013282Y009885D01*
X013282Y009885D01*
X013282Y010261D01*
X013282Y010261D01*
X013282Y010009D02*
X013282Y010009D01*
X013282Y010133D02*
X013282Y010133D01*
X013282Y010257D02*
X013282Y010257D01*
X013532Y010261D02*
X013532Y009885D01*
X013532Y009885D01*
X013532Y010261D01*
X013532Y010261D01*
X013532Y010009D02*
X013532Y010009D01*
X013532Y010133D02*
X013532Y010133D01*
X013532Y010257D02*
X013532Y010257D01*
X013782Y010261D02*
X013782Y009885D01*
X013782Y009885D01*
X013782Y010261D01*
X013782Y010261D01*
X013782Y010009D02*
X013782Y010009D01*
X013782Y010133D02*
X013782Y010133D01*
X013782Y010257D02*
X013782Y010257D01*
X014032Y010261D02*
X014032Y009885D01*
X014032Y009885D01*
X014032Y010261D01*
X014032Y010261D01*
X014032Y010009D02*
X014032Y010009D01*
X014032Y010133D02*
X014032Y010133D01*
X014032Y010257D02*
X014032Y010257D01*
X014282Y010261D02*
X014282Y009885D01*
X014282Y009885D01*
X014282Y010261D01*
X014282Y010261D01*
X014282Y010009D02*
X014282Y010009D01*
X014282Y010133D02*
X014282Y010133D01*
X014282Y010257D02*
X014282Y010257D01*
X014532Y010261D02*
X014532Y009885D01*
X014532Y009885D01*
X014532Y010261D01*
X014532Y010261D01*
X014532Y010009D02*
X014532Y010009D01*
X014532Y010133D02*
X014532Y010133D01*
X014532Y010257D02*
X014532Y010257D01*
X014782Y010261D02*
X014782Y009885D01*
X014782Y009885D01*
X014782Y010261D01*
X014782Y010261D01*
X014782Y010009D02*
X014782Y010009D01*
X014782Y010133D02*
X014782Y010133D01*
X014782Y010257D02*
X014782Y010257D01*
X015032Y010261D02*
X015032Y009885D01*
X015032Y009885D01*
X015032Y010261D01*
X015032Y010261D01*
X015032Y010009D02*
X015032Y010009D01*
X015032Y010133D02*
X015032Y010133D01*
X015032Y010257D02*
X015032Y010257D01*
X015282Y010261D02*
X015282Y009885D01*
X015282Y009885D01*
X015282Y010261D01*
X015282Y010261D01*
X015282Y010009D02*
X015282Y010009D01*
X015282Y010133D02*
X015282Y010133D01*
X015282Y010257D02*
X015282Y010257D01*
X015532Y010261D02*
X015532Y009885D01*
X015532Y009885D01*
X015532Y010261D01*
X015532Y010261D01*
X015532Y010009D02*
X015532Y010009D01*
X015532Y010133D02*
X015532Y010133D01*
X015532Y010257D02*
X015532Y010257D01*
X015782Y010261D02*
X015782Y009885D01*
X015782Y009885D01*
X015782Y010261D01*
X015782Y010261D01*
X015782Y010009D02*
X015782Y010009D01*
X015782Y010133D02*
X015782Y010133D01*
X015782Y010257D02*
X015782Y010257D01*
X016032Y010261D02*
X016032Y009885D01*
X016032Y009885D01*
X016032Y010261D01*
X016032Y010261D01*
X016032Y010009D02*
X016032Y010009D01*
X016032Y010133D02*
X016032Y010133D01*
X016032Y010257D02*
X016032Y010257D01*
X016282Y010261D02*
X016282Y009885D01*
X016282Y009885D01*
X016282Y010261D01*
X016282Y010261D01*
X016282Y010009D02*
X016282Y010009D01*
X016282Y010133D02*
X016282Y010133D01*
X016282Y010257D02*
X016282Y010257D01*
X016532Y010261D02*
X016532Y009885D01*
X016532Y009885D01*
X016532Y010261D01*
X016532Y010261D01*
X016532Y010009D02*
X016532Y010009D01*
X016532Y010133D02*
X016532Y010133D01*
X016532Y010257D02*
X016532Y010257D01*
X016782Y010261D02*
X016782Y009885D01*
X016782Y009885D01*
X016782Y010261D01*
X016782Y010261D01*
X016782Y010009D02*
X016782Y010009D01*
X016782Y010133D02*
X016782Y010133D01*
X016782Y010257D02*
X016782Y010257D01*
X017032Y010261D02*
X017032Y009885D01*
X017032Y009885D01*
X017032Y010261D01*
X017032Y010261D01*
X017032Y010009D02*
X017032Y010009D01*
X017032Y010133D02*
X017032Y010133D01*
X017032Y010257D02*
X017032Y010257D01*
X017282Y010261D02*
X017282Y009885D01*
X017282Y009885D01*
X017282Y010261D01*
X017282Y010261D01*
X017282Y010009D02*
X017282Y010009D01*
X017282Y010133D02*
X017282Y010133D01*
X017282Y010257D02*
X017282Y010257D01*
X017532Y010261D02*
X017532Y009885D01*
X017532Y009885D01*
X017532Y010261D01*
X017532Y010261D01*
X017532Y010009D02*
X017532Y010009D01*
X017532Y010133D02*
X017532Y010133D01*
X017532Y010257D02*
X017532Y010257D01*
X017532Y013685D02*
X017532Y014061D01*
X017532Y014061D01*
X017532Y013685D01*
X017532Y013685D01*
X017532Y013809D02*
X017532Y013809D01*
X017532Y013933D02*
X017532Y013933D01*
X017532Y014057D02*
X017532Y014057D01*
X017282Y014061D02*
X017282Y013685D01*
X017282Y014061D02*
X017282Y014061D01*
X017282Y013685D01*
X017282Y013685D01*
X017282Y013809D02*
X017282Y013809D01*
X017282Y013933D02*
X017282Y013933D01*
X017282Y014057D02*
X017282Y014057D01*
X017032Y014061D02*
X017032Y013685D01*
X017032Y014061D02*
X017032Y014061D01*
X017032Y013685D01*
X017032Y013685D01*
X017032Y013809D02*
X017032Y013809D01*
X017032Y013933D02*
X017032Y013933D01*
X017032Y014057D02*
X017032Y014057D01*
X016782Y014061D02*
X016782Y013685D01*
X016782Y014061D02*
X016782Y014061D01*
X016782Y013685D01*
X016782Y013685D01*
X016782Y013809D02*
X016782Y013809D01*
X016782Y013933D02*
X016782Y013933D01*
X016782Y014057D02*
X016782Y014057D01*
X016532Y014061D02*
X016532Y013685D01*
X016532Y014061D02*
X016532Y014061D01*
X016532Y013685D01*
X016532Y013685D01*
X016532Y013809D02*
X016532Y013809D01*
X016532Y013933D02*
X016532Y013933D01*
X016532Y014057D02*
X016532Y014057D01*
X016282Y014061D02*
X016282Y013685D01*
X016282Y014061D02*
X016282Y014061D01*
X016282Y013685D01*
X016282Y013685D01*
X016282Y013809D02*
X016282Y013809D01*
X016282Y013933D02*
X016282Y013933D01*
X016282Y014057D02*
X016282Y014057D01*
X016032Y014061D02*
X016032Y013685D01*
X016032Y014061D02*
X016032Y014061D01*
X016032Y013685D01*
X016032Y013685D01*
X016032Y013809D02*
X016032Y013809D01*
X016032Y013933D02*
X016032Y013933D01*
X016032Y014057D02*
X016032Y014057D01*
X015782Y014061D02*
X015782Y013685D01*
X015782Y014061D02*
X015782Y014061D01*
X015782Y013685D01*
X015782Y013685D01*
X015782Y013809D02*
X015782Y013809D01*
X015782Y013933D02*
X015782Y013933D01*
X015782Y014057D02*
X015782Y014057D01*
X015532Y014061D02*
X015532Y013685D01*
X015532Y014061D02*
X015532Y014061D01*
X015532Y013685D01*
X015532Y013685D01*
X015532Y013809D02*
X015532Y013809D01*
X015532Y013933D02*
X015532Y013933D01*
X015532Y014057D02*
X015532Y014057D01*
X015282Y014061D02*
X015282Y013685D01*
X015282Y014061D02*
X015282Y014061D01*
X015282Y013685D01*
X015282Y013685D01*
X015282Y013809D02*
X015282Y013809D01*
X015282Y013933D02*
X015282Y013933D01*
X015282Y014057D02*
X015282Y014057D01*
X015032Y014061D02*
X015032Y013685D01*
X015032Y014061D02*
X015032Y014061D01*
X015032Y013685D01*
X015032Y013685D01*
X015032Y013809D02*
X015032Y013809D01*
X015032Y013933D02*
X015032Y013933D01*
X015032Y014057D02*
X015032Y014057D01*
X014782Y014061D02*
X014782Y013685D01*
X014782Y014061D02*
X014782Y014061D01*
X014782Y013685D01*
X014782Y013685D01*
X014782Y013809D02*
X014782Y013809D01*
X014782Y013933D02*
X014782Y013933D01*
X014782Y014057D02*
X014782Y014057D01*
X014532Y014061D02*
X014532Y013685D01*
X014532Y014061D02*
X014532Y014061D01*
X014532Y013685D01*
X014532Y013685D01*
X014532Y013809D02*
X014532Y013809D01*
X014532Y013933D02*
X014532Y013933D01*
X014532Y014057D02*
X014532Y014057D01*
X014282Y014061D02*
X014282Y013685D01*
X014282Y014061D02*
X014282Y014061D01*
X014282Y013685D01*
X014282Y013685D01*
X014282Y013809D02*
X014282Y013809D01*
X014282Y013933D02*
X014282Y013933D01*
X014282Y014057D02*
X014282Y014057D01*
X014032Y014061D02*
X014032Y013685D01*
X014032Y014061D02*
X014032Y014061D01*
X014032Y013685D01*
X014032Y013685D01*
X014032Y013809D02*
X014032Y013809D01*
X014032Y013933D02*
X014032Y013933D01*
X014032Y014057D02*
X014032Y014057D01*
X013782Y014061D02*
X013782Y013685D01*
X013782Y014061D02*
X013782Y014061D01*
X013782Y013685D01*
X013782Y013685D01*
X013782Y013809D02*
X013782Y013809D01*
X013782Y013933D02*
X013782Y013933D01*
X013782Y014057D02*
X013782Y014057D01*
X013532Y014061D02*
X013532Y013685D01*
X013532Y014061D02*
X013532Y014061D01*
X013532Y013685D01*
X013532Y013685D01*
X013532Y013809D02*
X013532Y013809D01*
X013532Y013933D02*
X013532Y013933D01*
X013532Y014057D02*
X013532Y014057D01*
X013282Y014061D02*
X013282Y013685D01*
X013282Y014061D02*
X013282Y014061D01*
X013282Y013685D01*
X013282Y013685D01*
X013282Y013809D02*
X013282Y013809D01*
X013282Y013933D02*
X013282Y013933D01*
X013282Y014057D02*
X013282Y014057D01*
X013032Y014061D02*
X013032Y013685D01*
X013032Y014061D02*
X013032Y014061D01*
X013032Y013685D01*
X013032Y013685D01*
X013032Y013809D02*
X013032Y013809D01*
X013032Y013933D02*
X013032Y013933D01*
X013032Y014057D02*
X013032Y014057D01*
X012782Y014061D02*
X012782Y013685D01*
X012782Y014061D02*
X012782Y014061D01*
X012782Y013685D01*
X012782Y013685D01*
X012782Y013809D02*
X012782Y013809D01*
X012782Y013933D02*
X012782Y013933D01*
X012782Y014057D02*
X012782Y014057D01*
X012532Y014061D02*
X012532Y013685D01*
X012532Y014061D02*
X012532Y014061D01*
X012532Y013685D01*
X012532Y013685D01*
X012532Y013809D02*
X012532Y013809D01*
X012532Y013933D02*
X012532Y013933D01*
X012532Y014057D02*
X012532Y014057D01*
X012282Y014061D02*
X012282Y013685D01*
X012282Y014061D02*
X012282Y014061D01*
X012282Y013685D01*
X012282Y013685D01*
X012282Y013809D02*
X012282Y013809D01*
X012282Y013933D02*
X012282Y013933D01*
X012282Y014057D02*
X012282Y014057D01*
X012032Y014061D02*
X012032Y013685D01*
X012032Y014061D02*
X012032Y014061D01*
X012032Y013685D01*
X012032Y013685D01*
X012032Y013809D02*
X012032Y013809D01*
X012032Y013933D02*
X012032Y013933D01*
X012032Y014057D02*
X012032Y014057D01*
X011782Y014061D02*
X011782Y013685D01*
X011782Y014061D02*
X011782Y014061D01*
X011782Y013685D01*
X011782Y013685D01*
X011782Y013809D02*
X011782Y013809D01*
X011782Y013933D02*
X011782Y013933D01*
X011782Y014057D02*
X011782Y014057D01*
X011532Y014061D02*
X011532Y013685D01*
X011532Y014061D02*
X011532Y014061D01*
X011532Y013685D01*
X011532Y013685D01*
X011532Y013809D02*
X011532Y013809D01*
X011532Y013933D02*
X011532Y013933D01*
X011532Y014057D02*
X011532Y014057D01*
X011282Y014061D02*
X011282Y013685D01*
X011282Y014061D02*
X011282Y014061D01*
X011282Y013685D01*
X011282Y013685D01*
X011282Y013809D02*
X011282Y013809D01*
X011282Y013933D02*
X011282Y013933D01*
X011282Y014057D02*
X011282Y014057D01*
X011032Y014061D02*
X011032Y013685D01*
X011032Y014061D02*
X011032Y014061D01*
X011032Y013685D01*
X011032Y013685D01*
X011032Y013809D02*
X011032Y013809D01*
X011032Y013933D02*
X011032Y013933D01*
X011032Y014057D02*
X011032Y014057D01*
X010782Y014061D02*
X010782Y013685D01*
X010782Y014061D02*
X010782Y014061D01*
X010782Y013685D01*
X010782Y013685D01*
X010782Y013809D02*
X010782Y013809D01*
X010782Y013933D02*
X010782Y013933D01*
X010782Y014057D02*
X010782Y014057D01*
D11*
X018403Y012484D02*
X018403Y012484D01*
X017985Y012484D01*
X017985Y012484D01*
X018403Y012484D01*
X018403Y012228D02*
X018403Y012228D01*
X017985Y012228D01*
X017985Y012228D01*
X018403Y012228D01*
X018403Y011973D02*
X018403Y011973D01*
X017985Y011973D01*
X017985Y011973D01*
X018403Y011973D01*
X018403Y011717D02*
X018403Y011717D01*
X017985Y011717D01*
X017985Y011717D01*
X018403Y011717D01*
X018403Y011461D02*
X018403Y011461D01*
X017985Y011461D01*
X017985Y011461D01*
X018403Y011461D01*
D12*
X018431Y010900D02*
X018431Y010526D01*
X018135Y010526D01*
X018135Y010900D01*
X018431Y010900D01*
X018431Y010820D02*
X018135Y010820D01*
X018431Y013045D02*
X018431Y013419D01*
X018431Y013045D02*
X018135Y013045D01*
X018135Y013419D01*
X018431Y013419D01*
X018431Y013339D02*
X018135Y013339D01*
D13*
X019454Y012554D02*
X019454Y012238D01*
X019060Y012238D01*
X019060Y012554D01*
X019454Y012554D01*
X019454Y012552D02*
X019060Y012552D01*
X019454Y011715D02*
X019454Y011399D01*
X019060Y011399D01*
X019060Y011715D01*
X019454Y011715D01*
X019454Y011713D02*
X019060Y011713D01*
D14*
X018879Y010923D02*
X018879Y010503D01*
X018879Y010923D02*
X019135Y010923D01*
X019135Y010503D01*
X018879Y010503D01*
X018879Y010758D02*
X019135Y010758D01*
X019135Y013022D02*
X019135Y013442D01*
X019135Y013022D02*
X018879Y013022D01*
X018879Y013442D01*
X019135Y013442D01*
X019135Y013277D02*
X018879Y013277D01*
D15*
X019257Y013232D03*
X019257Y010713D03*
D16*
X009257Y007473D03*
X009257Y008473D03*
X009257Y009473D03*
X009257Y010473D03*
X009257Y011473D03*
X009257Y012473D03*
X009257Y013473D03*
X009257Y014473D03*
X009257Y015473D03*
X009257Y016473D03*
D17*
X009999Y015671D02*
X010017Y015671D01*
X010017Y015397D01*
X009999Y015397D01*
X009999Y015671D01*
X009999Y015595D02*
X010017Y015595D01*
X010373Y015671D02*
X010391Y015671D01*
X010391Y015397D01*
X010373Y015397D01*
X010373Y015671D01*
X010373Y015595D02*
X010391Y015595D01*
X010747Y015671D02*
X010765Y015671D01*
X010765Y015397D01*
X010747Y015397D01*
X010747Y015671D01*
X010747Y015595D02*
X010765Y015595D01*
X010747Y014648D02*
X010765Y014648D01*
X010765Y014374D01*
X010747Y014374D01*
X010747Y014648D01*
X010747Y014572D02*
X010765Y014572D01*
X010391Y014648D02*
X010373Y014648D01*
X010391Y014648D02*
X010391Y014374D01*
X010373Y014374D01*
X010373Y014648D01*
X010373Y014572D02*
X010391Y014572D01*
X010017Y014648D02*
X009999Y014648D01*
X010017Y014648D02*
X010017Y014374D01*
X009999Y014374D01*
X009999Y014648D01*
X009999Y014572D02*
X010017Y014572D01*
X013382Y015640D02*
X013382Y015658D01*
X013382Y015640D02*
X013108Y015640D01*
X013108Y015658D01*
X013382Y015658D01*
X013382Y016014D02*
X013382Y016032D01*
X013382Y016014D02*
X013108Y016014D01*
X013108Y016032D01*
X013382Y016032D01*
X013382Y016388D02*
X013382Y016406D01*
X013382Y016388D02*
X013108Y016388D01*
X013108Y016406D01*
X013382Y016406D01*
X014406Y016406D02*
X014406Y016388D01*
X014132Y016388D01*
X014132Y016406D01*
X014406Y016406D01*
X014406Y015658D02*
X014406Y015640D01*
X014132Y015640D01*
X014132Y015658D01*
X014406Y015658D01*
X010765Y009297D02*
X010747Y009297D01*
X010747Y009571D01*
X010765Y009571D01*
X010765Y009297D01*
X010765Y009495D02*
X010747Y009495D01*
X010391Y009297D02*
X010373Y009297D01*
X010373Y009571D01*
X010391Y009571D01*
X010391Y009297D01*
X010391Y009495D02*
X010373Y009495D01*
X010017Y009297D02*
X009999Y009297D01*
X009999Y009571D01*
X010017Y009571D01*
X010017Y009297D01*
X010017Y009495D02*
X009999Y009495D01*
X010017Y008274D02*
X009999Y008274D01*
X009999Y008548D01*
X010017Y008548D01*
X010017Y008274D01*
X010017Y008472D02*
X009999Y008472D01*
X010373Y008274D02*
X010391Y008274D01*
X010373Y008274D02*
X010373Y008548D01*
X010391Y008548D01*
X010391Y008274D01*
X010391Y008472D02*
X010373Y008472D01*
X010747Y008274D02*
X010765Y008274D01*
X010747Y008274D02*
X010747Y008548D01*
X010765Y008548D01*
X010765Y008274D01*
X010765Y008472D02*
X010747Y008472D01*
D18*
X015819Y015731D02*
X016171Y015731D01*
X015819Y015731D02*
X015819Y016005D01*
X016171Y016005D01*
X016171Y015731D01*
X016171Y015928D02*
X015819Y015928D01*
X015819Y016440D02*
X016171Y016440D01*
X015819Y016440D02*
X015819Y016714D01*
X016171Y016714D01*
X016171Y016440D01*
X016171Y016637D02*
X015819Y016637D01*
X016843Y016440D02*
X017195Y016440D01*
X016843Y016440D02*
X016843Y016714D01*
X017195Y016714D01*
X017195Y016440D01*
X017195Y016637D02*
X016843Y016637D01*
X016843Y015731D02*
X017195Y015731D01*
X016843Y015731D02*
X016843Y016005D01*
X017195Y016005D01*
X017195Y015731D01*
X017195Y015928D02*
X016843Y015928D01*
D19*
X017949Y009273D02*
X017949Y008983D01*
X017365Y008983D01*
X017365Y009273D01*
X017949Y009273D01*
X017949Y009184D02*
X017365Y009184D01*
X017949Y008368D02*
X017949Y008078D01*
X017365Y008078D01*
X017365Y008368D01*
X017949Y008368D01*
X017949Y008279D02*
X017365Y008279D01*
X017949Y007462D02*
X017949Y007172D01*
X017365Y007172D01*
X017365Y007462D01*
X017949Y007462D01*
X017949Y007373D02*
X017365Y007373D01*
D20*
X015690Y007613D02*
X015690Y008833D01*
X015690Y007613D02*
X015100Y007613D01*
X015100Y008833D01*
X015690Y008833D01*
X015690Y007809D02*
X015100Y007809D01*
X015100Y008005D02*
X015690Y008005D01*
X015690Y008201D02*
X015100Y008201D01*
X015100Y008397D02*
X015690Y008397D01*
X015690Y008593D02*
X015100Y008593D01*
X015100Y008789D02*
X015690Y008789D01*
D21*
X018907Y009075D02*
X018907Y009111D01*
X019307Y009111D01*
X019307Y009075D01*
X018907Y009075D01*
X018907Y009884D02*
X018907Y009920D01*
X019307Y009920D01*
X019307Y009884D01*
X018907Y009884D01*
D22*
X015474Y009198D02*
X015474Y009198D01*
X015474Y009298D01*
X015474Y009298D01*
X015474Y009198D01*
X015140Y009198D02*
X015140Y009198D01*
X015140Y009298D01*
X015140Y009298D01*
X015140Y009198D01*
X014357Y009205D02*
X014357Y009205D01*
X014457Y009205D01*
X014457Y009205D01*
X014357Y009205D01*
X014357Y009540D02*
X014357Y009540D01*
X014457Y009540D01*
X014457Y009540D01*
X014357Y009540D01*
X013332Y009540D02*
X013332Y009540D01*
X013232Y009540D01*
X013232Y009540D01*
X013332Y009540D01*
X013332Y009205D02*
X013332Y009205D01*
X013232Y009205D01*
X013232Y009205D01*
X013332Y009205D01*
X012399Y009573D02*
X012399Y009573D01*
X012399Y009473D01*
X012399Y009473D01*
X012399Y009573D01*
X012065Y009573D02*
X012065Y009573D01*
X012065Y009473D01*
X012065Y009473D01*
X012065Y009573D01*
X010249Y007848D02*
X010249Y007848D01*
X010249Y007948D01*
X010249Y007948D01*
X010249Y007848D01*
X009915Y007848D02*
X009915Y007848D01*
X009915Y007948D01*
X009915Y007948D01*
X009915Y007848D01*
X009915Y007423D02*
X009915Y007423D01*
X009915Y007523D01*
X009915Y007523D01*
X009915Y007423D01*
X010249Y007423D02*
X010249Y007423D01*
X010249Y007523D01*
X010249Y007523D01*
X010249Y007423D01*
X009982Y009930D02*
X009982Y009930D01*
X010082Y009930D01*
X010082Y009930D01*
X009982Y009930D01*
X009982Y010265D02*
X009982Y010265D01*
X010082Y010265D01*
X010082Y010265D01*
X009982Y010265D01*
X009982Y010680D02*
X009982Y010680D01*
X010082Y010680D01*
X010082Y010680D01*
X009982Y010680D01*
X009982Y011015D02*
X009982Y011015D01*
X010082Y011015D01*
X010082Y011015D01*
X009982Y011015D01*
X010082Y012955D02*
X010082Y012955D01*
X009982Y012955D01*
X009982Y012955D01*
X010082Y012955D01*
X010082Y013290D02*
X010082Y013290D01*
X009982Y013290D01*
X009982Y013290D01*
X010082Y013290D01*
X010082Y013680D02*
X010082Y013680D01*
X009982Y013680D01*
X009982Y013680D01*
X010082Y013680D01*
X010082Y014015D02*
X010082Y014015D01*
X009982Y014015D01*
X009982Y014015D01*
X010082Y014015D01*
X012457Y014830D02*
X012457Y014830D01*
X012557Y014830D01*
X012557Y014830D01*
X012457Y014830D01*
X012457Y015165D02*
X012457Y015165D01*
X012557Y015165D01*
X012557Y015165D01*
X012457Y015165D01*
X013232Y014740D02*
X013232Y014740D01*
X013332Y014740D01*
X013332Y014740D01*
X013232Y014740D01*
X013232Y014405D02*
X013232Y014405D01*
X013332Y014405D01*
X013332Y014405D01*
X013232Y014405D01*
X014232Y014405D02*
X014232Y014405D01*
X014332Y014405D01*
X014332Y014405D01*
X014232Y014405D01*
X014232Y014740D02*
X014232Y014740D01*
X014332Y014740D01*
X014332Y014740D01*
X014232Y014740D01*
X015232Y014740D02*
X015232Y014740D01*
X015332Y014740D01*
X015332Y014740D01*
X015232Y014740D01*
X015232Y014405D02*
X015232Y014405D01*
X015332Y014405D01*
X015332Y014405D01*
X015232Y014405D01*
X016232Y014405D02*
X016232Y014405D01*
X016332Y014405D01*
X016332Y014405D01*
X016232Y014405D01*
X016232Y014740D02*
X016232Y014740D01*
X016332Y014740D01*
X016332Y014740D01*
X016232Y014740D01*
X014857Y015680D02*
X014857Y015680D01*
X014757Y015680D01*
X014757Y015680D01*
X014857Y015680D01*
X014857Y016015D02*
X014857Y016015D01*
X014757Y016015D01*
X014757Y016015D01*
X014857Y016015D01*
X015382Y016330D02*
X015382Y016330D01*
X015482Y016330D01*
X015482Y016330D01*
X015382Y016330D01*
X015382Y016665D02*
X015382Y016665D01*
X015482Y016665D01*
X015482Y016665D01*
X015382Y016665D01*
X017632Y016665D02*
X017632Y016665D01*
X017532Y016665D01*
X017532Y016665D01*
X017632Y016665D01*
X017632Y016330D02*
X017632Y016330D01*
X017532Y016330D01*
X017532Y016330D01*
X017632Y016330D01*
X012557Y016355D02*
X012557Y016355D01*
X012457Y016355D01*
X012457Y016355D01*
X012557Y016355D01*
X012557Y016690D02*
X012557Y016690D01*
X012457Y016690D01*
X012457Y016690D01*
X012557Y016690D01*
X012107Y016690D02*
X012107Y016690D01*
X012007Y016690D01*
X012007Y016690D01*
X012107Y016690D01*
X012107Y016355D02*
X012107Y016355D01*
X012007Y016355D01*
X012007Y016355D01*
X012107Y016355D01*
X010249Y016423D02*
X010249Y016423D01*
X010249Y016523D01*
X010249Y016523D01*
X010249Y016423D01*
X009915Y016423D02*
X009915Y016423D01*
X009915Y016523D01*
X009915Y016523D01*
X009915Y016423D01*
X009915Y015998D02*
X009915Y015998D01*
X009915Y016098D01*
X009915Y016098D01*
X009915Y015998D01*
X010249Y015998D02*
X010249Y015998D01*
X010249Y016098D01*
X010249Y016098D01*
X010249Y015998D01*
X013957Y007515D02*
X013957Y007515D01*
X013857Y007515D01*
X013857Y007515D01*
X013957Y007515D01*
X013957Y007180D02*
X013957Y007180D01*
X013857Y007180D01*
X013857Y007180D01*
X013957Y007180D01*
D23*
X014022Y015048D03*
X014042Y015048D03*
X015072Y016698D03*
X015092Y016698D03*
D24*
X018029Y013896D02*
X018105Y013896D01*
X018029Y013896D02*
X018029Y014050D01*
X018105Y014050D01*
X018105Y013896D01*
X018509Y013896D02*
X018585Y013896D01*
X018509Y013896D02*
X018509Y014050D01*
X018585Y014050D01*
X018585Y013896D01*
X018585Y009896D02*
X018509Y009896D01*
X018509Y010050D01*
X018585Y010050D01*
X018585Y009896D01*
X018105Y009896D02*
X018029Y009896D01*
X018029Y010050D01*
X018105Y010050D01*
X018105Y009896D01*
X018405Y009126D02*
X018405Y009050D01*
X018405Y009126D02*
X018559Y009126D01*
X018559Y009050D01*
X018405Y009050D01*
X018405Y008646D02*
X018405Y008570D01*
X018405Y008646D02*
X018559Y008646D01*
X018559Y008570D01*
X018405Y008570D01*
X013855Y009020D02*
X013855Y009096D01*
X014009Y009096D01*
X014009Y009020D01*
X013855Y009020D01*
X013855Y009500D02*
X013855Y009576D01*
X014009Y009576D01*
X014009Y009500D01*
X013855Y009500D01*
D25*
X014706Y008383D02*
X014706Y008271D01*
X014308Y008271D01*
X014308Y008383D01*
X014706Y008383D01*
X014706Y007674D02*
X014706Y007562D01*
X014308Y007562D01*
X014308Y007674D01*
X014706Y007674D01*
D26*
X014507Y008327D02*
X014161Y008327D01*
X013907Y008073D01*
X013907Y007515D01*
X013907Y007180D02*
X014110Y006948D01*
X016632Y006948D01*
X016832Y007148D01*
X016832Y007673D01*
X017007Y007848D01*
X018057Y007848D01*
X018182Y007973D01*
X018182Y008598D01*
X018032Y008748D01*
X017257Y008748D01*
X017132Y008873D01*
X017132Y009448D01*
X016957Y009623D01*
X016357Y009623D01*
X016282Y009698D01*
X016282Y010073D01*
X015782Y010073D02*
X015782Y009748D01*
X015657Y009623D01*
X014460Y009623D01*
X014407Y009540D01*
X014375Y009538D01*
X013932Y009538D01*
X013672Y009538D01*
X013582Y009448D01*
X013582Y008898D01*
X013457Y008773D01*
X014407Y008973D02*
X014757Y008623D01*
X014407Y008973D02*
X014407Y009205D01*
X012065Y009523D02*
X012035Y009519D01*
X011532Y010073D02*
X011532Y008773D01*
X011382Y008623D01*
X010857Y008623D01*
X010731Y008497D01*
X010756Y008411D01*
X010756Y008247D01*
X010507Y007998D01*
X010507Y007701D01*
X010249Y007473D01*
X009915Y007473D02*
X009885Y007548D01*
X009632Y007801D01*
X009632Y007923D01*
X009257Y008298D01*
X009257Y008473D01*
X009732Y008051D02*
X009915Y007898D01*
X009732Y008051D02*
X009732Y008998D01*
X009257Y009473D01*
X010008Y009434D02*
X010008Y009901D01*
X010032Y009930D01*
X010032Y010265D02*
X009435Y010294D01*
X009257Y010473D01*
X010032Y010680D02*
X010529Y010651D01*
X010782Y010398D01*
X010782Y010073D01*
X010782Y010148D01*
X010782Y010073D02*
X010782Y009434D01*
X010756Y009434D01*
X011032Y009248D02*
X011032Y010073D01*
X011282Y010073D02*
X011282Y009273D01*
X010932Y008923D01*
X010232Y008923D01*
X010008Y008699D01*
X010008Y008411D01*
X010008Y008272D01*
X010279Y008001D01*
X010249Y007898D01*
X010382Y008411D02*
X010382Y008648D01*
X010507Y008773D01*
X011157Y008773D01*
X011257Y008873D01*
X011032Y009248D02*
X010857Y009073D01*
X010232Y009073D01*
X010008Y009297D01*
X010008Y009434D01*
X010382Y009434D02*
X010382Y009773D01*
X010032Y011015D02*
X009604Y011473D01*
X009257Y011473D01*
X009257Y012473D02*
X009579Y012473D01*
X010032Y012955D01*
X010032Y013290D02*
X010554Y013319D01*
X010782Y013548D01*
X010782Y013873D01*
X010782Y014511D01*
X010756Y014511D01*
X011032Y014698D02*
X011032Y013873D01*
X011282Y013873D02*
X011282Y014673D01*
X010932Y015023D01*
X010157Y015023D01*
X010008Y015172D01*
X010008Y015534D01*
X010008Y015674D01*
X010279Y015944D01*
X010249Y016048D01*
X010507Y015898D02*
X010756Y015649D01*
X010756Y015534D01*
X010731Y015424D01*
X010832Y015323D01*
X011357Y015323D01*
X011532Y015148D01*
X011532Y013873D01*
X012032Y013873D02*
X012032Y014148D01*
X012407Y014523D01*
X012657Y014523D01*
X012857Y014723D01*
X012857Y015423D01*
X013083Y015649D01*
X013009Y015723D01*
X012757Y015723D01*
X012557Y015923D01*
X012157Y015923D01*
X012057Y016023D01*
X012057Y016355D01*
X011935Y016448D01*
X011707Y016448D01*
X012057Y016690D02*
X012507Y016690D01*
X013560Y016719D01*
X013857Y016423D01*
X013857Y015798D01*
X014006Y015649D01*
X014157Y015649D01*
X014269Y015649D01*
X013682Y015523D02*
X013682Y016248D01*
X013533Y016397D01*
X013245Y016397D01*
X012981Y016397D01*
X012908Y016397D01*
X012857Y016448D01*
X012910Y016326D02*
X012507Y016355D01*
X012910Y016326D02*
X012981Y016397D01*
X013083Y015649D02*
X013245Y015649D01*
X013207Y015373D02*
X013532Y015373D01*
X013682Y015523D01*
X013207Y015373D02*
X013032Y015198D01*
X013032Y014598D01*
X012732Y014298D01*
X012432Y014298D01*
X012282Y014148D01*
X012282Y013873D01*
X012260Y014801D02*
X012407Y014804D01*
X011282Y015023D02*
X011132Y015173D01*
X010457Y015173D01*
X010382Y015248D01*
X010382Y015534D01*
X010507Y015898D02*
X010507Y016223D01*
X010279Y016451D01*
X010249Y016473D01*
X009915Y016473D02*
X009885Y016426D01*
X009882Y016423D01*
X009657Y016194D01*
X009657Y016048D01*
X009257Y015648D01*
X009257Y015473D01*
X009757Y015919D02*
X009757Y014973D01*
X009257Y014473D01*
X010007Y014512D02*
X010007Y014044D01*
X010032Y014015D01*
X010032Y013680D02*
X009435Y013651D01*
X009257Y013473D01*
X010008Y014511D02*
X010007Y014512D01*
X010007Y014723D01*
X010157Y014873D01*
X010857Y014873D01*
X011032Y014698D01*
X010382Y014511D02*
X010382Y014173D01*
X009757Y015919D02*
X009915Y016048D01*
X013782Y013873D02*
X013782Y012298D01*
X014363Y011717D01*
X018194Y011717D01*
X018194Y011973D02*
X014407Y011973D01*
X014257Y012123D01*
X014257Y012223D01*
X014357Y012323D01*
X014357Y012423D01*
X014032Y012748D01*
X014032Y013873D01*
X014782Y013873D02*
X014782Y015055D01*
X014789Y015055D01*
X015057Y015323D01*
X015319Y015323D01*
X015864Y015868D01*
X015432Y016330D01*
X015549Y016577D02*
X015432Y016665D01*
X015429Y016698D01*
X015092Y016698D01*
X015072Y016698D02*
X014807Y016433D01*
X014807Y016398D01*
X014806Y016397D01*
X014269Y016397D01*
X015549Y016577D02*
X015995Y016577D01*
X016366Y016948D01*
X017707Y016948D01*
X017832Y016823D01*
X017832Y016448D01*
X017685Y016301D01*
X017582Y016330D01*
X017149Y015868D01*
X017019Y015868D01*
X016607Y015773D02*
X016607Y016165D01*
X017019Y016577D01*
X017464Y016577D01*
X017582Y016665D01*
X016607Y015773D02*
X016257Y015423D01*
X015857Y015423D01*
X015557Y015123D01*
X015157Y015123D01*
X015032Y014998D01*
X015032Y013873D01*
X016532Y013873D02*
X016532Y014198D01*
X016757Y014423D01*
X016757Y014523D01*
X016957Y014723D01*
X015995Y015868D02*
X015864Y015868D01*
X017357Y010923D02*
X017657Y010923D01*
X017657Y010523D01*
X017657Y009523D02*
X017657Y009522D01*
X017657Y009128D01*
D27*
X017657Y009523D03*
X018807Y008598D03*
X018482Y008323D03*
X017107Y007598D03*
X017107Y007298D03*
X015657Y007823D03*
X015357Y007823D03*
X015357Y008223D03*
X015657Y008223D03*
X015657Y008623D03*
X015357Y008623D03*
X014807Y009248D03*
X013932Y008798D03*
X013457Y008773D03*
X012982Y009173D03*
X011857Y009273D03*
X011257Y008873D03*
X010382Y009773D03*
X011607Y011098D03*
X012407Y010698D03*
X013457Y011673D03*
X013457Y011973D03*
X013457Y012273D03*
X012907Y013298D03*
X014657Y013298D03*
X014657Y012498D03*
X014957Y012498D03*
X015257Y012498D03*
X015907Y013298D03*
X016907Y013298D03*
X016957Y014723D03*
X015857Y014773D03*
X013882Y014773D03*
X013357Y015098D03*
X012507Y015473D03*
X012882Y016023D03*
X012857Y016448D03*
X011707Y016448D03*
X011282Y015023D03*
X011882Y014623D03*
X010382Y014173D03*
X014657Y011423D03*
X014957Y011423D03*
X015257Y011423D03*
X015657Y010698D03*
X017357Y010923D03*
X018907Y013998D03*
X014807Y016398D03*
X014757Y007273D03*
X014457Y007273D03*
D28*
X015395Y008223D02*
X015554Y008223D01*
X015474Y009248D02*
X015782Y009248D01*
X016032Y009498D01*
X016032Y010073D01*
X015532Y010073D02*
X015532Y010573D01*
X015657Y010698D01*
X015140Y009248D02*
X014807Y009248D01*
X013932Y009058D02*
X013932Y008798D01*
X013279Y009173D02*
X012982Y009173D01*
X012785Y009173D01*
X012399Y009523D01*
X012065Y009523D02*
X012035Y009451D01*
X011857Y009273D01*
X012065Y009523D02*
X012032Y010073D01*
X012282Y010073D02*
X012282Y010573D01*
X012407Y010698D01*
X011782Y010923D02*
X011607Y011098D01*
X011782Y010923D02*
X011782Y010073D01*
X013282Y010073D02*
X013282Y009540D01*
X013282Y009205D02*
X013279Y009173D01*
X014557Y012923D02*
X014857Y012923D01*
X015282Y013348D01*
X015282Y013873D01*
X015282Y014405D01*
X015282Y014740D02*
X015854Y014769D01*
X015857Y014773D01*
X015860Y014769D01*
X016282Y014740D01*
X016282Y014405D02*
X016282Y013873D01*
X016032Y013873D02*
X016032Y014198D01*
X015857Y014373D01*
X015857Y014773D01*
X016032Y013873D02*
X016032Y013423D01*
X015907Y013298D01*
X016782Y013423D02*
X016782Y013873D01*
X016782Y013423D02*
X016907Y013298D01*
X018547Y013973D02*
X018882Y013973D01*
X018907Y013998D01*
X014807Y015680D02*
X014271Y015651D01*
X014269Y015649D01*
X014157Y015649D02*
X014022Y015514D01*
X014022Y015048D01*
X013782Y015048D01*
X013582Y014848D01*
X013582Y014573D01*
X013385Y014376D01*
X013282Y014405D02*
X013282Y013873D01*
X013532Y013873D02*
X013532Y014148D01*
X013882Y014498D01*
X013882Y014773D01*
X014279Y014773D01*
X014282Y014740D01*
X014282Y014405D02*
X014485Y014376D01*
X014582Y014473D01*
X014582Y014948D01*
X014482Y015048D01*
X014042Y015048D01*
X013357Y015098D02*
X013282Y015023D01*
X013282Y014740D01*
X012507Y014830D02*
X012260Y014801D01*
X011957Y014498D01*
X011782Y014498D01*
X011782Y014323D01*
X011957Y014498D01*
X011882Y014623D02*
X011782Y014523D01*
X011782Y014498D01*
X011782Y014323D02*
X011782Y013873D01*
X012532Y013873D02*
X012532Y013423D01*
X012657Y013298D01*
X012907Y013298D01*
X013032Y013423D01*
X013032Y013873D01*
X014282Y013873D02*
X014282Y013198D01*
X014557Y012923D01*
X014657Y013298D02*
X014532Y013423D01*
X014532Y013873D01*
X014282Y013873D02*
X014282Y014405D01*
X014807Y016015D02*
X014807Y016398D01*
X013245Y016023D02*
X012882Y016023D01*
X012507Y015473D02*
X012507Y015165D01*
D29*
X011782Y013723D02*
X011782Y013473D01*
X011810Y013473D01*
X011864Y013487D01*
X011912Y013515D01*
X011935Y013538D01*
X011960Y013513D01*
X012103Y013513D01*
X012157Y013566D01*
X012210Y013513D01*
X012353Y013513D01*
X012357Y013516D01*
X012357Y013495D01*
X012357Y013350D01*
X012482Y013225D01*
X012584Y013123D01*
X012721Y013123D01*
X012762Y013081D01*
X012856Y013043D01*
X012958Y013043D01*
X013051Y013081D01*
X013123Y013153D01*
X013162Y013247D01*
X013162Y013305D01*
X013207Y013350D01*
X013207Y013485D01*
X013254Y013473D01*
X013282Y013473D01*
X013310Y013473D01*
X013364Y013487D01*
X013412Y013515D01*
X013435Y013538D01*
X013460Y013513D01*
X013603Y013513D01*
X013642Y013551D01*
X013642Y012356D01*
X013642Y012239D01*
X014305Y011577D01*
X014421Y011577D01*
X017557Y011577D01*
X017557Y011491D01*
X017467Y011401D01*
X017467Y011153D01*
X017408Y011177D01*
X017306Y011177D01*
X017212Y011139D01*
X017141Y011067D01*
X017102Y010973D01*
X017102Y010872D01*
X017141Y010778D01*
X017212Y010706D01*
X017306Y010668D01*
X017408Y010668D01*
X017467Y010692D01*
X017467Y010601D01*
X017467Y010444D01*
X017478Y010432D01*
X017460Y010432D01*
X017407Y010379D01*
X017353Y010432D01*
X017210Y010432D01*
X017157Y010379D01*
X017103Y010432D01*
X016960Y010432D01*
X016907Y010379D01*
X016853Y010432D01*
X016710Y010432D01*
X016657Y010379D01*
X016603Y010432D01*
X016460Y010432D01*
X016407Y010379D01*
X016353Y010432D01*
X016210Y010432D01*
X016185Y010407D01*
X016162Y010430D01*
X016114Y010458D01*
X016060Y010472D01*
X016032Y010472D01*
X016032Y010223D01*
X016032Y010223D01*
X016032Y010472D01*
X016004Y010472D01*
X015950Y010458D01*
X015901Y010430D01*
X015879Y010407D01*
X015853Y010432D01*
X015710Y010432D01*
X015707Y010429D01*
X015707Y010443D01*
X015708Y010443D01*
X015801Y010481D01*
X015873Y010553D01*
X015912Y010647D01*
X015912Y010748D01*
X015873Y010842D01*
X015801Y010914D01*
X015708Y010952D01*
X015606Y010952D01*
X015512Y010914D01*
X015441Y010842D01*
X015402Y010748D01*
X015402Y010690D01*
X015357Y010645D01*
X015357Y010500D01*
X015357Y010429D01*
X015353Y010432D01*
X015210Y010432D01*
X015157Y010379D01*
X015103Y010432D01*
X014960Y010432D01*
X014907Y010379D01*
X014853Y010432D01*
X014710Y010432D01*
X014657Y010379D01*
X014603Y010432D01*
X014460Y010432D01*
X014407Y010379D01*
X014353Y010432D01*
X014210Y010432D01*
X014157Y010379D01*
X014103Y010432D01*
X013960Y010432D01*
X013907Y010379D01*
X013853Y010432D01*
X013710Y010432D01*
X013657Y010379D01*
X013603Y010432D01*
X013460Y010432D01*
X013435Y010407D01*
X013412Y010430D01*
X013364Y010458D01*
X013310Y010472D01*
X013282Y010472D01*
X013282Y010223D01*
X013282Y010223D01*
X013282Y010472D01*
X013254Y010472D01*
X013200Y010458D01*
X013151Y010430D01*
X013129Y010407D01*
X013103Y010432D01*
X012960Y010432D01*
X012907Y010379D01*
X012853Y010432D01*
X012710Y010432D01*
X012657Y010379D01*
X012603Y010432D01*
X012460Y010432D01*
X012457Y010429D01*
X012457Y010443D01*
X012458Y010443D01*
X012551Y010481D01*
X012623Y010553D01*
X012662Y010647D01*
X012662Y010748D01*
X012623Y010842D01*
X012551Y010914D01*
X012458Y010952D01*
X012356Y010952D01*
X012262Y010914D01*
X012191Y010842D01*
X012152Y010748D01*
X012152Y010690D01*
X012107Y010645D01*
X012107Y010500D01*
X012107Y010460D01*
X012060Y010472D01*
X012032Y010472D01*
X012032Y010223D01*
X012032Y010223D01*
X012032Y010472D01*
X012004Y010472D01*
X011957Y010460D01*
X011957Y010850D01*
X011957Y010995D01*
X011862Y011090D01*
X011862Y011148D01*
X011823Y011242D01*
X011757Y011308D01*
X011757Y013473D01*
X011782Y013473D01*
X011782Y013723D01*
X011782Y013723D01*
X011782Y013719D02*
X011782Y013719D01*
X011782Y013621D02*
X011782Y013621D01*
X011782Y013522D02*
X011782Y013522D01*
X011757Y013423D02*
X012357Y013423D01*
X012382Y013325D02*
X011757Y013325D01*
X011757Y013226D02*
X012480Y013226D01*
X012579Y013128D02*
X011757Y013128D01*
X011757Y013029D02*
X013642Y013029D01*
X013642Y012931D02*
X011757Y012931D01*
X011757Y012832D02*
X013642Y012832D01*
X013642Y012734D02*
X011757Y012734D01*
X011757Y012635D02*
X013642Y012635D01*
X013642Y012537D02*
X011757Y012537D01*
X011757Y012438D02*
X013642Y012438D01*
X013642Y012339D02*
X011757Y012339D01*
X011757Y012241D02*
X013642Y012241D01*
X013739Y012142D02*
X011757Y012142D01*
X011757Y012044D02*
X013837Y012044D01*
X013936Y011945D02*
X011757Y011945D01*
X011757Y011847D02*
X014035Y011847D01*
X014133Y011748D02*
X011757Y011748D01*
X011757Y011650D02*
X014232Y011650D01*
X014465Y012112D02*
X014405Y012172D01*
X014415Y012183D01*
X014497Y012264D01*
X014497Y012364D01*
X014497Y012481D01*
X014172Y012806D01*
X014172Y013060D01*
X014382Y012850D01*
X014484Y012748D01*
X014784Y012748D01*
X014929Y012748D01*
X015354Y013173D01*
X015457Y013275D01*
X015457Y013516D01*
X015460Y013513D01*
X015603Y013513D01*
X015657Y013566D01*
X015710Y013513D01*
X015761Y013513D01*
X015691Y013442D01*
X015652Y013348D01*
X015652Y013247D01*
X015691Y013153D01*
X015762Y013081D01*
X015856Y013043D01*
X015958Y013043D01*
X016051Y013081D01*
X016123Y013153D01*
X016162Y013247D01*
X016162Y013305D01*
X016207Y013350D01*
X016207Y013485D01*
X016254Y013473D01*
X016282Y013473D01*
X016310Y013473D01*
X016364Y013487D01*
X016412Y013515D01*
X016435Y013538D01*
X016460Y013513D01*
X016603Y013513D01*
X016607Y013516D01*
X016607Y013350D01*
X016652Y013305D01*
X016652Y013247D01*
X016691Y013153D01*
X016762Y013081D01*
X016856Y013043D01*
X016958Y013043D01*
X017051Y013081D01*
X017123Y013153D01*
X017162Y013247D01*
X017162Y013348D01*
X017123Y013442D01*
X017052Y013513D01*
X017103Y013513D01*
X017157Y013566D01*
X017210Y013513D01*
X017353Y013513D01*
X017407Y013566D01*
X017460Y013513D01*
X017478Y013513D01*
X017467Y013501D01*
X017467Y013344D01*
X017467Y012544D01*
X017557Y012454D01*
X017557Y012112D01*
X014465Y012112D01*
X014435Y012142D02*
X017557Y012142D01*
X017557Y012241D02*
X014473Y012241D01*
X014497Y012339D02*
X017557Y012339D01*
X017557Y012438D02*
X014497Y012438D01*
X014441Y012537D02*
X017474Y012537D01*
X017467Y012635D02*
X014342Y012635D01*
X014244Y012734D02*
X017467Y012734D01*
X017467Y012832D02*
X015014Y012832D01*
X015113Y012931D02*
X017467Y012931D01*
X017467Y013029D02*
X015211Y013029D01*
X015310Y013128D02*
X015716Y013128D01*
X015660Y013226D02*
X015408Y013226D01*
X015457Y013325D02*
X015652Y013325D01*
X015683Y013423D02*
X015457Y013423D01*
X015613Y013522D02*
X015701Y013522D01*
X016207Y013423D02*
X016607Y013423D01*
X016632Y013325D02*
X016182Y013325D01*
X016153Y013226D02*
X016660Y013226D01*
X016716Y013128D02*
X016098Y013128D01*
X016282Y013473D02*
X016282Y013723D01*
X016282Y013473D01*
X016282Y013522D02*
X016282Y013522D01*
X016282Y013621D02*
X016282Y013621D01*
X016282Y013719D02*
X016282Y013719D01*
X016282Y013723D02*
X016282Y013723D01*
X016419Y013522D02*
X016451Y013522D01*
X017113Y013522D02*
X017201Y013522D01*
X017131Y013423D02*
X017467Y013423D01*
X017467Y013325D02*
X017162Y013325D01*
X017153Y013226D02*
X017467Y013226D01*
X017467Y013128D02*
X017098Y013128D01*
X017363Y013522D02*
X017451Y013522D01*
X017557Y011551D02*
X011757Y011551D01*
X011757Y011453D02*
X017518Y011453D01*
X017467Y011354D02*
X011757Y011354D01*
X011809Y011256D02*
X017467Y011256D01*
X017457Y011157D02*
X017467Y011157D01*
X017257Y011157D02*
X011858Y011157D01*
X011893Y011058D02*
X017137Y011058D01*
X017102Y010960D02*
X011957Y010960D01*
X011957Y010861D02*
X012210Y010861D01*
X012158Y010763D02*
X011957Y010763D01*
X011957Y010664D02*
X012126Y010664D01*
X012107Y010566D02*
X011957Y010566D01*
X011957Y010467D02*
X011984Y010467D01*
X012032Y010467D02*
X012032Y010467D01*
X012080Y010467D02*
X012107Y010467D01*
X012032Y010369D02*
X012032Y010369D01*
X012032Y010270D02*
X012032Y010270D01*
X012517Y010467D02*
X013234Y010467D01*
X013282Y010467D02*
X013282Y010467D01*
X013330Y010467D02*
X015357Y010467D01*
X015357Y010566D02*
X012628Y010566D01*
X012662Y010664D02*
X015376Y010664D01*
X015408Y010763D02*
X012656Y010763D01*
X012604Y010861D02*
X015460Y010861D01*
X015854Y010861D02*
X017106Y010861D01*
X017156Y010763D02*
X015906Y010763D01*
X015912Y010664D02*
X017467Y010664D01*
X017467Y010566D02*
X015878Y010566D01*
X015984Y010467D02*
X015767Y010467D01*
X016032Y010467D02*
X016032Y010467D01*
X016080Y010467D02*
X017467Y010467D01*
X016899Y009483D02*
X016299Y009483D01*
X016259Y009523D01*
X015757Y009523D01*
X015757Y008923D01*
X014757Y008923D01*
X014257Y008423D01*
X014257Y007886D01*
X014793Y007886D01*
X014796Y007882D01*
X014923Y007882D01*
X015017Y007789D01*
X015117Y007689D01*
X015117Y007556D01*
X015117Y007087D01*
X016574Y007087D01*
X016692Y007206D01*
X016692Y007731D01*
X016774Y007812D01*
X016949Y007987D01*
X017065Y007987D01*
X017157Y007987D01*
X017157Y008650D01*
X016992Y008814D01*
X016992Y008931D01*
X016992Y009389D01*
X016899Y009483D01*
X016900Y009482D02*
X015757Y009482D01*
X015757Y009383D02*
X016992Y009383D01*
X016992Y009285D02*
X015757Y009285D01*
X015757Y009186D02*
X016992Y009186D01*
X016992Y009088D02*
X015757Y009088D01*
X015757Y008989D02*
X016992Y008989D01*
X016992Y008890D02*
X014725Y008890D01*
X014626Y008792D02*
X017014Y008792D01*
X017113Y008693D02*
X014528Y008693D01*
X014429Y008595D02*
X017157Y008595D01*
X017157Y008496D02*
X014331Y008496D01*
X014257Y008398D02*
X017157Y008398D01*
X017157Y008299D02*
X014257Y008299D01*
X014257Y008201D02*
X017157Y008201D01*
X017157Y008102D02*
X014257Y008102D01*
X014257Y008004D02*
X017157Y008004D01*
X016866Y007905D02*
X014257Y007905D01*
X014257Y007723D02*
X014857Y007723D01*
X014891Y007688D01*
X014891Y007526D01*
X014957Y007460D01*
X014957Y007123D01*
X014922Y007087D01*
X014292Y007087D01*
X014257Y007123D01*
X014257Y007723D01*
X014257Y007708D02*
X014871Y007708D01*
X014891Y007609D02*
X014257Y007609D01*
X014257Y007511D02*
X014906Y007511D01*
X014957Y007412D02*
X014257Y007412D01*
X014257Y007314D02*
X014957Y007314D01*
X014957Y007215D02*
X014257Y007215D01*
X014263Y007117D02*
X014951Y007117D01*
X015117Y007117D02*
X016603Y007117D01*
X016692Y007215D02*
X015117Y007215D01*
X015117Y007314D02*
X016692Y007314D01*
X016692Y007412D02*
X015117Y007412D01*
X015117Y007511D02*
X016692Y007511D01*
X016692Y007609D02*
X015117Y007609D01*
X015098Y007708D02*
X016692Y007708D01*
X016768Y007806D02*
X014999Y007806D01*
X016972Y007614D02*
X016972Y007206D01*
X016972Y007089D01*
X016957Y007075D01*
X016957Y007023D01*
X017057Y006922D01*
X018974Y006922D01*
X019022Y006922D01*
X019057Y006922D01*
X019135Y006929D01*
X019284Y006977D01*
X019410Y007069D01*
X019502Y007196D01*
X019551Y007344D01*
X019557Y007422D01*
X019557Y007493D01*
X019523Y007411D01*
X019368Y007256D01*
X019166Y007173D01*
X018947Y007173D01*
X018745Y007256D01*
X018591Y007411D01*
X018507Y007613D01*
X018507Y007832D01*
X018591Y008034D01*
X018745Y008189D01*
X018947Y008272D01*
X019166Y008272D01*
X019368Y008189D01*
X019523Y008034D01*
X019557Y007952D01*
X019557Y008723D01*
X018257Y008723D01*
X018257Y008720D01*
X018322Y008656D01*
X018322Y008031D01*
X018322Y007914D01*
X018197Y007789D01*
X018115Y007708D01*
X018507Y007708D01*
X018507Y007806D02*
X018214Y007806D01*
X018312Y007905D02*
X018537Y007905D01*
X018578Y008004D02*
X018322Y008004D01*
X018322Y008102D02*
X018659Y008102D01*
X018774Y008201D02*
X018322Y008201D01*
X018322Y008299D02*
X019557Y008299D01*
X019557Y008201D02*
X019340Y008201D01*
X019455Y008102D02*
X019557Y008102D01*
X019557Y008004D02*
X019536Y008004D01*
X019557Y008398D02*
X018322Y008398D01*
X018322Y008496D02*
X019557Y008496D01*
X019557Y008595D02*
X018322Y008595D01*
X018284Y008693D02*
X019557Y008693D01*
X019524Y007412D02*
X019556Y007412D01*
X019541Y007314D02*
X019426Y007314D01*
X019509Y007215D02*
X019269Y007215D01*
X019445Y007117D02*
X016972Y007117D01*
X016972Y007215D02*
X018844Y007215D01*
X018688Y007314D02*
X016972Y007314D01*
X016972Y007412D02*
X018590Y007412D01*
X018549Y007511D02*
X016972Y007511D01*
X016972Y007609D02*
X018508Y007609D01*
X018115Y007708D02*
X017065Y007708D01*
X016972Y007614D01*
X016961Y007018D02*
X019341Y007018D01*
X016032Y010270D02*
X016032Y010270D01*
X016032Y010369D02*
X016032Y010369D01*
X013282Y010369D02*
X013282Y010369D01*
X013282Y010270D02*
X013282Y010270D01*
X014172Y012832D02*
X014400Y012832D01*
X014301Y012931D02*
X014172Y012931D01*
X014172Y013029D02*
X014203Y013029D01*
X013642Y013128D02*
X013098Y013128D01*
X013153Y013226D02*
X013642Y013226D01*
X013642Y013325D02*
X013182Y013325D01*
X013207Y013423D02*
X013642Y013423D01*
X013642Y013522D02*
X013613Y013522D01*
X013451Y013522D02*
X013419Y013522D01*
X013282Y013522D02*
X013282Y013522D01*
X013282Y013473D02*
X013282Y013723D01*
X013282Y013723D01*
X013282Y013473D01*
X013282Y013621D02*
X013282Y013621D01*
X013282Y013719D02*
X013282Y013719D01*
X012201Y013522D02*
X012113Y013522D01*
X011951Y013522D02*
X011919Y013522D01*
D30*
X017657Y013423D02*
X017657Y012623D01*
X017795Y012484D01*
X018194Y012484D01*
X018194Y011461D02*
X017795Y011461D01*
X017657Y011323D01*
X017657Y010523D01*
X017782Y010398D01*
X017782Y010258D01*
X018067Y009973D01*
X018547Y009973D02*
X018547Y009902D01*
X019107Y009902D01*
X018482Y009128D02*
X018482Y009088D01*
X018482Y009093D01*
X019107Y009093D01*
X018482Y009128D02*
X017657Y009128D01*
X017657Y008223D02*
X015395Y008223D01*
X017657Y013423D02*
X017782Y013548D01*
X017782Y013688D01*
X018067Y013973D01*
D31*
X013385Y014376D02*
X013282Y014405D01*
M02*
